<svg xmlns="http://www.w3.org/2000/svg" viewBox="0 0 500 500"><g id="freepik--Floor--inject-47"><ellipse id="freepik--floor--inject-47" cx="247.6" cy="348.14" rx="234.21" ry="135.22" style="fill:#455a64"></ellipse><path d="M413.22,252.53c-85-49.08-219.09-52.54-311-10.39l329,190C504.21,379,498.22,301.6,413.22,252.53Z" style="fill:#6B6B6B"></path><path d="M413.22,252.53c-85-49.08-219.09-52.54-311-10.39l329,190C504.21,379,498.22,301.6,413.22,252.53Z" style="opacity:0.1"></path><path d="M82,252.53c-33.43,19.3-54.63,43-63.62,67.86l277.31,160.1c43.07-5.19,84.1-17.43,117.54-36.73a205.22,205.22,0,0,0,18-11.66l-329-190Q91.71,246.94,82,252.53Z" style="fill:#f0f0f0"></path><polygon points="269.41 465.32 379.09 402 383.15 404.35 273.47 467.67 269.41 465.32" style="fill:#e6e6e6"></polygon><polygon points="155.67 399.66 265.35 336.34 269.41 338.68 159.73 402 155.67 399.66" style="fill:#e6e6e6"></polygon><polygon points="41.93 333.99 151.61 270.67 155.67 273.02 45.99 336.34 41.93 333.99" style="fill:#e6e6e6"></polygon><path d="M274.71,482.46q10.55-.7,21-2L18.37,320.39h0A85.46,85.46,0,0,0,15,332.49Z" style="fill:#e0e0e0"></path></g><g id="freepik--Shadow--inject-47"><ellipse id="freepik--shadow--inject-47" cx="105.78" cy="302.78" rx="45.37" ry="26.19" style="opacity:0.07"></ellipse></g><g id="freepik--Buildings--inject-47"><polygon points="220.7 287.04 151.61 247.22 216.54 209.9 285.66 249.61 220.7 287.04" style="fill:#fafafa"></polygon><polygon points="151.61 247.22 220.7 287.04 220.7 291.78 151.61 251.91 151.61 247.22" style="fill:#f0f0f0"></polygon><polygon points="285.66 249.62 220.7 287.04 220.7 291.78 285.66 254.26 285.66 249.62" style="fill:#e0e0e0"></polygon><polygon points="220.65 277.71 268.44 250.11 268.44 47.49 220.65 75.09 220.65 277.71" style="fill:#6B6B6B"></polygon><polygon points="220.65 277.71 268.44 250.11 268.44 47.49 220.65 75.09 220.65 277.71" style="fill:#fff;opacity:0.65"></polygon><polygon points="220.65 75.09 168.5 44.98 168.5 247.6 220.65 277.71 220.65 75.09" style="fill:#6B6B6B"></polygon><polygon points="220.65 75.09 168.5 44.98 168.5 247.6 220.65 277.71 220.65 75.09" style="fill:#fff;opacity:0.8"></polygon><polygon points="268.44 47.49 216.3 17.39 168.5 44.98 220.65 75.09 268.44 47.49" style="fill:#6B6B6B"></polygon><polygon points="268.44 47.49 216.3 17.39 168.5 44.98 220.65 75.09 268.44 47.49" style="fill:#fff;opacity:0.9"></polygon><polygon points="188.02 258.89 188.02 238.82 201.53 246.59 201.53 266.65 188.02 258.89" style="fill:#37474f"></polygon><polygon points="193.92 242.21 195.23 242.97 195.23 263.04 193.92 262.28 193.92 242.21" style="fill:#6B6B6B"></polygon><polygon points="193.92 242.21 195.23 242.97 195.23 263.04 193.92 262.28 193.92 242.21" style="fill:#fff;opacity:0.8"></polygon><polygon points="215.19 265.87 215.19 254.68 206.25 249.52 206.25 260.71 215.19 265.87" style="fill:#6B6B6B"></polygon><polygon points="215.19 244.43 215.19 233.24 206.25 228.08 206.25 239.27 215.19 244.43" style="fill:#6B6B6B"></polygon><polygon points="215.19 223.29 215.19 212.1 206.25 206.94 206.25 218.13 215.19 223.29" style="fill:#6B6B6B"></polygon><polygon points="215.19 202.15 215.19 190.96 206.25 185.8 206.25 196.99 215.19 202.15" style="fill:#6B6B6B"></polygon><polygon points="215.19 181.01 215.19 169.82 206.25 164.66 206.25 175.85 215.19 181.01" style="fill:#6B6B6B"></polygon><polygon points="215.19 159.88 215.19 148.69 206.25 143.53 206.25 154.71 215.19 159.88" style="fill:#6B6B6B"></polygon><polygon points="215.19 138.74 215.19 127.55 206.25 122.39 206.25 133.57 215.19 138.74" style="fill:#6B6B6B"></polygon><polygon points="215.19 117.75 215.19 106.56 206.25 101.4 206.25 112.59 215.19 117.75" style="fill:#6B6B6B"></polygon><polygon points="215.19 96.77 215.19 85.58 206.25 80.42 206.25 91.6 215.19 96.77" style="fill:#6B6B6B"></polygon><polygon points="182.92 247.25 182.92 236.06 173.98 230.9 173.98 242.09 182.92 247.25" style="fill:#6B6B6B"></polygon><polygon points="182.92 225.81 182.92 214.62 173.98 209.46 173.98 220.65 182.92 225.81" style="fill:#6B6B6B"></polygon><polygon points="182.92 204.63 182.92 193.44 173.98 188.28 173.98 199.47 182.92 204.63" style="fill:#6B6B6B"></polygon><polygon points="182.92 183.46 182.92 172.27 173.98 167.11 173.98 178.3 182.92 183.46" style="fill:#6B6B6B"></polygon><polygon points="182.92 162.28 182.92 151.09 173.98 145.93 173.98 157.12 182.92 162.28" style="fill:#6B6B6B"></polygon><polygon points="182.92 141.11 182.92 129.92 173.98 124.76 173.98 135.95 182.92 141.11" style="fill:#6B6B6B"></polygon><polygon points="182.92 119.93 182.92 108.74 173.98 103.58 173.98 114.77 182.92 119.93" style="fill:#6B6B6B"></polygon><polygon points="182.92 98.77 182.92 87.58 173.98 82.42 173.98 93.61 182.92 98.77" style="fill:#6B6B6B"></polygon><polygon points="182.92 77.61 182.92 66.42 173.98 61.26 173.98 72.44 182.92 77.61" style="fill:#6B6B6B"></polygon><g style="opacity:0.15"><polygon points="215.19 265.87 215.19 254.68 206.25 249.52 206.25 260.71 215.19 265.87"></polygon><polygon points="215.19 244.43 215.19 233.24 206.25 228.08 206.25 239.27 215.19 244.43"></polygon><polygon points="215.19 223.29 215.19 212.1 206.25 206.94 206.25 218.13 215.19 223.29"></polygon><polygon points="215.19 202.15 215.19 190.96 206.25 185.8 206.25 196.99 215.19 202.15"></polygon><polygon points="215.19 181.01 215.19 169.82 206.25 164.66 206.25 175.85 215.19 181.01"></polygon><polygon points="215.19 159.88 215.19 148.69 206.25 143.53 206.25 154.71 215.19 159.88"></polygon><polygon points="215.19 138.74 215.19 127.55 206.25 122.39 206.25 133.57 215.19 138.74"></polygon><polygon points="215.19 117.75 215.19 106.56 206.25 101.4 206.25 112.59 215.19 117.75"></polygon><polygon points="215.19 96.77 215.19 85.58 206.25 80.42 206.25 91.6 215.19 96.77"></polygon><polygon points="182.92 247.25 182.92 236.06 173.98 230.9 173.98 242.09 182.92 247.25"></polygon><polygon points="182.92 225.81 182.92 214.62 173.98 209.46 173.98 220.65 182.92 225.81"></polygon><polygon points="182.92 204.63 182.92 193.44 173.98 188.28 173.98 199.47 182.92 204.63"></polygon><polygon points="182.92 183.46 182.92 172.27 173.98 167.11 173.98 178.3 182.92 183.46"></polygon><polygon points="182.92 162.28 182.92 151.09 173.98 145.93 173.98 157.12 182.92 162.28"></polygon><polygon points="182.92 141.11 182.92 129.92 173.98 124.76 173.98 135.95 182.92 141.11"></polygon><polygon points="182.92 119.93 182.92 108.74 173.98 103.58 173.98 114.77 182.92 119.93"></polygon><polygon points="182.92 98.77 182.92 87.58 173.98 82.42 173.98 93.61 182.92 98.77"></polygon><polygon points="182.92 77.61 182.92 66.42 173.98 61.26 173.98 72.44 182.92 77.61"></polygon></g><polygon points="188.02 68.8 193.24 71.8 193.24 231.77 188.02 228.77 188.02 68.8" style="fill:#6B6B6B"></polygon><polygon points="196.31 73.53 201.53 76.53 201.53 236.5 196.31 233.5 196.31 73.53" style="fill:#6B6B6B"></polygon><g style="opacity:0.30000000000000004"><polygon points="188.02 68.8 193.24 71.8 193.24 231.77 188.02 228.77 188.02 68.8"></polygon><polygon points="196.31 73.53 201.53 76.53 201.53 236.5 196.31 233.5 196.31 73.53"></polygon></g><polygon points="177.19 44.98 216.3 22.41 259.75 47.49 220.65 70.07 177.19 44.98" style="fill:#6B6B6B"></polygon><polygon points="177.19 44.98 216.3 22.41 259.75 47.49 220.65 70.07 177.19 44.98" style="fill:#fff;opacity:0.6000000000000001"></polygon><polygon points="216.3 22.41 216.3 27.42 255.41 50 259.75 47.49 216.3 22.41" style="fill:#6B6B6B"></polygon><polygon points="216.3 22.41 216.3 27.42 255.41 50 259.75 47.49 216.3 22.41" style="fill:#fff;opacity:0.7000000000000001"></polygon><polygon points="216.3 22.41 177.19 44.98 181.54 47.49 216.3 27.42 216.3 22.41" style="fill:#6B6B6B"></polygon><polygon points="216.3 22.41 177.19 44.98 181.54 47.49 216.3 27.42 216.3 22.41" style="fill:#fff;opacity:0.8"></polygon><polygon points="226.18 265.87 226.18 254.68 235.12 249.52 235.12 260.71 226.18 265.87" style="fill:#6B6B6B"></polygon><polygon points="240.08 257.88 240.08 246.69 249.01 241.53 249.01 252.72 240.08 257.88" style="fill:#6B6B6B"></polygon><polygon points="253.98 249.9 253.98 238.71 262.92 233.55 262.92 244.74 253.98 249.9" style="fill:#6B6B6B"></polygon><polygon points="226.18 244.43 226.18 233.24 235.12 228.08 235.12 239.27 226.18 244.43" style="fill:#6B6B6B"></polygon><polygon points="240.08 236.44 240.08 225.26 249.01 220.1 249.01 231.28 240.08 236.44" style="fill:#6B6B6B"></polygon><polygon points="253.98 228.46 253.98 217.27 262.92 212.11 262.92 223.3 253.98 228.46" style="fill:#6B6B6B"></polygon><polygon points="226.18 223.29 226.18 212.1 235.12 206.94 235.12 218.13 226.18 223.29" style="fill:#6B6B6B"></polygon><polygon points="240.08 215.29 240.08 204.1 249.01 198.94 249.01 210.13 240.08 215.29" style="fill:#6B6B6B"></polygon><polygon points="253.98 207.28 253.98 196.09 262.92 190.93 262.92 202.12 253.98 207.28" style="fill:#6B6B6B"></polygon><polygon points="226.18 202.15 226.18 190.96 235.12 185.8 235.12 196.99 226.18 202.15" style="fill:#6B6B6B"></polygon><polygon points="240.08 194.13 240.08 182.94 249.01 177.78 249.01 188.97 240.08 194.13" style="fill:#6B6B6B"></polygon><polygon points="253.98 186.11 253.98 174.92 262.92 169.76 262.92 180.95 253.98 186.11" style="fill:#6B6B6B"></polygon><polygon points="226.18 181.01 226.18 169.82 235.12 164.66 235.12 175.85 226.18 181.01" style="fill:#6B6B6B"></polygon><polygon points="240.08 172.97 240.08 161.78 249.01 156.62 249.01 167.81 240.08 172.97" style="fill:#6B6B6B"></polygon><polygon points="253.98 164.93 253.98 153.75 262.92 148.58 262.92 159.77 253.98 164.93" style="fill:#6B6B6B"></polygon><polygon points="226.18 159.88 226.18 148.69 235.12 143.53 235.12 154.71 226.18 159.88" style="fill:#6B6B6B"></polygon><polygon points="240.08 151.82 240.08 140.63 249.01 135.47 249.01 146.66 240.08 151.82" style="fill:#6B6B6B"></polygon><polygon points="253.98 143.76 253.98 132.57 262.92 127.41 262.92 138.6 253.98 143.76" style="fill:#6B6B6B"></polygon><polygon points="226.18 138.74 226.18 127.55 235.12 122.39 235.12 133.57 226.18 138.74" style="fill:#6B6B6B"></polygon><polygon points="240.08 130.66 240.08 119.47 249.01 114.31 249.01 125.5 240.08 130.66" style="fill:#6B6B6B"></polygon><polygon points="253.98 122.58 253.98 111.39 262.92 106.23 262.92 117.42 253.98 122.58" style="fill:#6B6B6B"></polygon><polygon points="226.18 117.75 226.18 106.56 235.12 101.4 235.12 112.59 226.18 117.75" style="fill:#6B6B6B"></polygon><polygon points="240.08 109.58 240.08 98.4 249.01 93.23 249.01 104.42 240.08 109.58" style="fill:#6B6B6B"></polygon><polygon points="253.98 101.42 253.98 90.23 262.92 85.07 262.92 96.26 253.98 101.42" style="fill:#6B6B6B"></polygon><polygon points="226.18 96.77 226.18 85.58 235.12 80.42 235.12 91.6 226.18 96.77" style="fill:#6B6B6B"></polygon><polygon points="240.08 88.51 240.08 77.32 249.01 72.16 249.01 83.35 240.08 88.51" style="fill:#6B6B6B"></polygon><polygon points="253.98 80.26 253.98 69.07 262.92 63.91 262.92 75.1 253.98 80.26" style="fill:#6B6B6B"></polygon><g style="opacity:0.30000000000000004"><polygon points="226.18 265.87 226.18 254.68 235.12 249.52 235.12 260.71 226.18 265.87"></polygon><polygon points="240.08 257.88 240.08 246.69 249.01 241.53 249.01 252.72 240.08 257.88"></polygon><polygon points="253.98 249.9 253.98 238.71 262.92 233.55 262.92 244.74 253.98 249.9"></polygon><polygon points="226.18 244.43 226.18 233.24 235.12 228.08 235.12 239.27 226.18 244.43"></polygon><polygon points="240.08 236.44 240.08 225.26 249.01 220.1 249.01 231.28 240.08 236.44"></polygon><polygon points="253.98 228.46 253.98 217.27 262.92 212.11 262.92 223.3 253.98 228.46"></polygon><polygon points="226.18 223.29 226.18 212.1 235.12 206.94 235.12 218.13 226.18 223.29"></polygon><polygon points="240.08 215.29 240.08 204.1 249.01 198.94 249.01 210.13 240.08 215.29"></polygon><polygon points="253.98 207.28 253.98 196.09 262.92 190.93 262.92 202.12 253.98 207.28"></polygon><polygon points="226.18 202.15 226.18 190.96 235.12 185.8 235.12 196.99 226.18 202.15"></polygon><polygon points="240.08 194.13 240.08 182.94 249.01 177.78 249.01 188.97 240.08 194.13"></polygon><polygon points="253.98 186.11 253.98 174.92 262.92 169.76 262.92 180.95 253.98 186.11"></polygon><polygon points="226.18 181.01 226.18 169.82 235.12 164.66 235.12 175.85 226.18 181.01"></polygon><polygon points="240.08 172.97 240.08 161.78 249.01 156.62 249.01 167.81 240.08 172.97"></polygon><polygon points="253.98 164.93 253.98 153.75 262.92 148.58 262.92 159.77 253.98 164.93"></polygon><polygon points="226.18 159.88 226.18 148.69 235.12 143.53 235.12 154.71 226.18 159.88"></polygon><polygon points="240.08 151.82 240.08 140.63 249.01 135.47 249.01 146.66 240.08 151.82"></polygon><polygon points="253.98 143.76 253.98 132.57 262.92 127.41 262.92 138.6 253.98 143.76"></polygon><polygon points="226.18 138.74 226.18 127.55 235.12 122.39 235.12 133.57 226.18 138.74"></polygon><polygon points="240.08 130.66 240.08 119.47 249.01 114.31 249.01 125.5 240.08 130.66"></polygon><polygon points="253.98 122.58 253.98 111.39 262.92 106.23 262.92 117.42 253.98 122.58"></polygon><polygon points="226.18 117.75 226.18 106.56 235.12 101.4 235.12 112.59 226.18 117.75"></polygon><polygon points="240.08 109.58 240.08 98.4 249.01 93.23 249.01 104.42 240.08 109.58"></polygon><polygon points="253.98 101.42 253.98 90.23 262.92 85.07 262.92 96.26 253.98 101.42"></polygon><polygon points="226.18 96.77 226.18 85.58 235.12 80.42 235.12 91.6 226.18 96.77"></polygon><polygon points="240.08 88.51 240.08 77.32 249.01 72.16 249.01 83.35 240.08 88.51"></polygon><polygon points="253.98 80.26 253.98 69.07 262.92 63.91 262.92 75.1 253.98 80.26"></polygon></g><polygon points="216.35 22.4 211.44 30.23 250.55 52.81 259.75 47.49 216.35 22.4" style="opacity:0.05"></polygon><rect x="271.83" y="246.03" width="14.68" height="1.2" transform="translate(-67.09 383.99) rotate(-63.1)" style="fill:#263238"></rect><rect x="271.76" y="238.16" width="1.2" height="12.31" transform="translate(-87.81 179.92) rotate(-31.76)" style="fill:#263238"></rect><path d="M276.85,237.52v31.56a.53.53,0,0,1-.29.41,1.61,1.61,0,0,1-1.42,0,.52.52,0,0,1-.3-.41V237.52Z" style="fill:#263238"></path><circle cx="286.05" cy="227.7" r="14.65" style="fill:#455a64"></circle><path d="M290.65,224c1.89-5.95,3.9-8.27,2.62-9A14.65,14.65,0,1,0,297.36,237C293,238.29,288.2,231.67,290.65,224Z" style="fill:#37474f"></path><circle cx="262.97" cy="231.85" r="10.3" transform="translate(-8.01 454.29) rotate(-80.78)" style="fill:#455a64"></circle><path d="M263,221.55a10.25,10.25,0,0,0-6,1.94c-.28,6.3,5.06,12.43,3.57,14.49s-5.17.8-6.45-.95a10.3,10.3,0,1,0,8.9-15.48Z" style="fill:#37474f"></path><circle cx="275.85" cy="220.75" r="18.89" transform="translate(-2.37 438.5) rotate(-76.72)" style="fill:#455a64"></circle><path d="M294.24,225.06a18.89,18.89,0,1,1-27.69-20.76,19.05,19.05,0,0,0-4.42,3.46,19.2,19.2,0,0,0-.5,4.32,18.89,18.89,0,0,0,32.61,13Z" style="fill:#37474f"></path><polygon points="383.12 380.85 273.47 317.5 362.83 266.06 472.51 329.31 383.12 380.85" style="fill:#fafafa"></polygon><polygon points="273.47 317.5 383.12 380.85 383.12 385.59 273.47 322.19 273.47 317.5" style="fill:#f0f0f0"></polygon><polygon points="472.51 329.31 383.12 380.85 383.12 385.59 472.51 333.95 472.51 329.31" style="fill:#e0e0e0"></polygon><polygon points="291.75 60.75 322.21 78.34 322.21 336.34 291.75 318.75 291.75 60.75" style="fill:#6B6B6B"></polygon><polygon points="291.75 60.75 322.21 78.34 322.21 336.34 291.75 318.75 291.75 60.75" style="fill:#fff;opacity:0.8"></polygon><polygon points="352.68 95.92 383.14 113.51 383.14 371.52 352.68 353.93 352.68 95.92" style="fill:#6B6B6B"></polygon><polygon points="352.68 95.92 383.14 113.51 383.14 371.52 352.68 353.93 352.68 95.92" style="fill:#fff;opacity:0.8"></polygon><polygon points="301.9 301.16 301.9 312.89 312.06 318.75 312.06 307.02 301.9 301.16" style="fill:#6B6B6B"></polygon><polygon points="301.9 283.57 301.9 295.3 312.06 301.16 312.06 289.43 301.9 283.57" style="fill:#6B6B6B"></polygon><polygon points="301.9 260.12 301.9 271.85 312.06 277.71 312.06 265.98 301.9 260.12" style="fill:#6B6B6B"></polygon><polygon points="301.9 242.53 301.9 254.26 312.06 260.12 312.06 248.39 301.9 242.53" style="fill:#6B6B6B"></polygon><polygon points="301.9 136.97 301.9 148.69 312.06 154.56 312.06 142.83 301.9 136.97" style="fill:#6B6B6B"></polygon><polygon points="301.9 119.38 301.9 131.1 312.06 136.97 312.06 125.24 301.9 119.38" style="fill:#6B6B6B"></polygon><polygon points="301.9 95.92 301.9 107.65 312.06 113.51 312.06 101.79 301.9 95.92" style="fill:#6B6B6B"></polygon><polygon points="301.9 78.34 301.9 90.06 312.06 95.92 312.06 84.2 301.9 78.34" style="fill:#6B6B6B"></polygon><polygon points="362.83 336.34 362.83 348.07 372.99 353.93 372.99 342.2 362.83 336.34" style="fill:#6B6B6B"></polygon><polygon points="362.83 318.75 362.83 330.48 372.99 336.34 372.99 324.62 362.83 318.75" style="fill:#6B6B6B"></polygon><polygon points="362.83 295.3 362.83 307.03 372.99 312.89 372.99 301.16 362.83 295.3" style="fill:#6B6B6B"></polygon><polygon points="362.83 277.71 362.83 289.44 372.99 295.3 372.99 283.57 362.83 277.71" style="fill:#6B6B6B"></polygon><polygon points="362.83 172.15 362.83 183.87 372.99 189.74 372.99 178.01 362.83 172.15" style="fill:#6B6B6B"></polygon><polygon points="362.83 154.56 362.83 166.28 372.99 172.15 372.99 160.42 362.83 154.56" style="fill:#6B6B6B"></polygon><polygon points="362.83 131.11 362.83 142.83 372.99 148.69 372.99 136.97 362.83 131.11" style="fill:#6B6B6B"></polygon><polygon points="362.83 113.52 362.83 125.24 372.99 131.11 372.99 119.38 362.83 113.52" style="fill:#6B6B6B"></polygon><polygon points="301.9 218.93 301.9 230.66 312.06 236.52 312.06 224.79 301.9 218.93" style="fill:#6B6B6B"></polygon><polygon points="301.9 201.34 301.9 213.07 312.06 218.93 312.06 207.21 301.9 201.34" style="fill:#6B6B6B"></polygon><polygon points="301.9 177.89 301.9 189.62 312.06 195.48 312.06 183.75 301.9 177.89" style="fill:#6B6B6B"></polygon><polygon points="301.9 160.3 301.9 172.03 312.06 177.89 312.06 166.16 301.9 160.3" style="fill:#6B6B6B"></polygon><polygon points="362.83 254.11 362.83 265.84 372.99 271.7 372.99 259.98 362.83 254.11" style="fill:#6B6B6B"></polygon><polygon points="362.83 236.53 362.83 248.25 372.99 254.12 372.99 242.39 362.83 236.53" style="fill:#6B6B6B"></polygon><polygon points="362.83 213.07 362.83 224.8 372.99 230.66 372.99 218.94 362.83 213.07" style="fill:#6B6B6B"></polygon><polygon points="362.83 195.48 362.83 207.21 372.99 213.07 372.99 201.35 362.83 195.48" style="fill:#6B6B6B"></polygon><g style="opacity:0.15"><polygon points="301.9 301.16 301.9 312.89 312.06 318.75 312.06 307.02 301.9 301.16"></polygon><polygon points="301.9 283.57 301.9 295.3 312.06 301.16 312.06 289.43 301.9 283.57"></polygon><polygon points="301.9 260.12 301.9 271.85 312.06 277.71 312.06 265.98 301.9 260.12"></polygon><polygon points="301.9 242.53 301.9 254.26 312.06 260.12 312.06 248.39 301.9 242.53"></polygon><polygon points="301.9 136.97 301.9 148.69 312.06 154.56 312.06 142.83 301.9 136.97"></polygon><polygon points="301.9 119.38 301.9 131.1 312.06 136.97 312.06 125.24 301.9 119.38"></polygon><polygon points="301.9 95.92 301.9 107.65 312.06 113.51 312.06 101.79 301.9 95.92"></polygon><polygon points="301.9 78.34 301.9 90.06 312.06 95.92 312.06 84.2 301.9 78.34"></polygon><polygon points="362.83 336.34 362.83 348.07 372.99 353.93 372.99 342.2 362.83 336.34"></polygon><polygon points="362.83 318.75 362.83 330.48 372.99 336.34 372.99 324.62 362.83 318.75"></polygon><polygon points="362.83 295.3 362.83 307.03 372.99 312.89 372.99 301.16 362.83 295.3"></polygon><polygon points="362.83 277.71 362.83 289.44 372.99 295.3 372.99 283.57 362.83 277.71"></polygon><polygon points="362.83 172.15 362.83 183.87 372.99 189.74 372.99 178.01 362.83 172.15"></polygon><polygon points="362.83 154.56 362.83 166.28 372.99 172.15 372.99 160.42 362.83 154.56"></polygon><polygon points="362.83 131.11 362.83 142.83 372.99 148.69 372.99 136.97 362.83 131.11"></polygon><polygon points="362.83 113.52 362.83 125.24 372.99 131.11 372.99 119.38 362.83 113.52"></polygon><polygon points="301.9 218.93 301.9 230.66 312.06 236.52 312.06 224.79 301.9 218.93"></polygon><polygon points="301.9 201.34 301.9 213.07 312.06 218.93 312.06 207.21 301.9 201.34"></polygon><polygon points="301.9 177.89 301.9 189.62 312.06 195.48 312.06 183.75 301.9 177.89"></polygon><polygon points="301.9 160.3 301.9 172.03 312.06 177.89 312.06 166.16 301.9 160.3"></polygon><polygon points="362.83 254.11 362.83 265.84 372.99 271.7 372.99 259.98 362.83 254.11"></polygon><polygon points="362.83 236.53 362.83 248.25 372.99 254.12 372.99 242.39 362.83 236.53"></polygon><polygon points="362.83 213.07 362.83 224.8 372.99 230.66 372.99 218.94 362.83 213.07"></polygon><polygon points="362.83 195.48 362.83 207.21 372.99 213.07 372.99 201.35 362.83 195.48"></polygon></g><polygon points="383.14 113.51 454.23 72.47 454.23 330.47 383.14 371.52 383.14 113.51" style="fill:#6B6B6B"></polygon><polygon points="383.14 113.51 454.23 72.47 454.23 330.47 383.14 371.52 383.14 113.51" style="fill:#fff;opacity:0.65"></polygon><polygon points="403.45 336.34 403.45 348.07 393.3 353.93 393.3 342.2 403.45 336.34" style="fill:#6B6B6B"></polygon><polygon points="403.45 318.75 403.45 330.48 393.3 336.34 393.3 324.62 403.45 318.75" style="fill:#6B6B6B"></polygon><polygon points="403.45 295.3 403.45 307.03 393.3 312.89 393.3 301.16 403.45 295.3" style="fill:#6B6B6B"></polygon><polygon points="403.45 277.71 403.45 289.44 393.3 295.3 393.3 283.57 403.45 277.71" style="fill:#6B6B6B"></polygon><polygon points="403.45 172.15 403.45 183.87 393.3 189.74 393.3 178.01 403.45 172.15" style="fill:#6B6B6B"></polygon><polygon points="403.45 154.56 403.45 166.28 393.3 172.15 393.3 160.42 403.45 154.56" style="fill:#6B6B6B"></polygon><polygon points="403.45 131.11 403.45 142.83 393.3 148.69 393.3 136.97 403.45 131.11" style="fill:#6B6B6B"></polygon><polygon points="403.45 113.52 403.45 125.24 393.3 131.11 393.3 119.38 403.45 113.52" style="fill:#6B6B6B"></polygon><polygon points="423.76 324.69 423.76 336.41 413.61 342.28 413.61 330.55 423.76 324.69" style="fill:#6B6B6B"></polygon><polygon points="423.76 307.1 423.76 318.83 413.61 324.69 413.61 312.96 423.76 307.1" style="fill:#6B6B6B"></polygon><polygon points="423.76 283.65 423.76 295.37 413.61 301.24 413.61 289.51 423.76 283.65" style="fill:#6B6B6B"></polygon><polygon points="423.76 266.06 423.76 277.79 413.61 283.65 413.61 271.92 423.76 266.06" style="fill:#6B6B6B"></polygon><polygon points="423.76 160.49 423.76 172.22 413.61 178.08 413.61 166.36 423.76 160.49" style="fill:#6B6B6B"></polygon><polygon points="423.76 142.91 423.76 154.63 413.61 160.49 413.61 148.77 423.76 142.91" style="fill:#6B6B6B"></polygon><polygon points="423.76 119.45 423.76 131.18 413.61 137.04 413.61 125.32 423.76 119.45" style="fill:#6B6B6B"></polygon><polygon points="423.76 101.86 423.76 113.59 413.61 119.45 413.61 107.73 423.76 101.86" style="fill:#6B6B6B"></polygon><polygon points="444.08 313.04 444.08 324.76 433.92 330.62 433.92 318.9 444.08 313.04" style="fill:#6B6B6B"></polygon><polygon points="444.08 295.45 444.08 307.17 433.92 313.04 433.92 301.31 444.08 295.45" style="fill:#6B6B6B"></polygon><polygon points="444.08 271.99 444.08 283.72 433.92 289.58 433.92 277.86 444.08 271.99" style="fill:#6B6B6B"></polygon><polygon points="444.08 254.41 444.08 266.13 433.92 271.99 433.92 260.27 444.08 254.41" style="fill:#6B6B6B"></polygon><polygon points="444.08 148.84 444.08 160.57 433.92 166.43 433.92 154.7 444.08 148.84" style="fill:#6B6B6B"></polygon><polygon points="444.08 131.25 444.08 142.98 433.92 148.84 433.92 137.12 444.08 131.25" style="fill:#6B6B6B"></polygon><polygon points="444.08 107.8 444.08 119.53 433.92 125.39 433.92 113.66 444.08 107.8" style="fill:#6B6B6B"></polygon><polygon points="444.08 90.21 444.08 101.94 433.92 107.8 433.92 96.07 444.08 90.21" style="fill:#6B6B6B"></polygon><polygon points="403.45 254.11 403.45 265.84 393.3 271.7 393.3 259.98 403.45 254.11" style="fill:#6B6B6B"></polygon><polygon points="403.45 236.53 403.45 248.25 393.3 254.12 393.3 242.39 403.45 236.53" style="fill:#6B6B6B"></polygon><polygon points="403.45 213.07 403.45 224.8 393.3 230.66 393.3 218.94 403.45 213.07" style="fill:#6B6B6B"></polygon><polygon points="403.45 195.48 403.45 207.21 393.3 213.07 393.3 201.35 403.45 195.48" style="fill:#6B6B6B"></polygon><polygon points="423.76 242.46 423.76 254.19 413.61 260.05 413.61 248.32 423.76 242.46" style="fill:#6B6B6B"></polygon><polygon points="423.76 224.87 423.76 236.6 413.61 242.46 413.61 230.74 423.76 224.87" style="fill:#6B6B6B"></polygon><polygon points="423.76 201.42 423.76 213.15 413.61 219.01 413.61 207.28 423.76 201.42" style="fill:#6B6B6B"></polygon><polygon points="423.76 183.83 423.76 195.56 413.61 201.42 413.61 189.69 423.76 183.83" style="fill:#6B6B6B"></polygon><polygon points="444.08 230.81 444.08 242.53 433.92 248.4 433.92 236.67 444.08 230.81" style="fill:#6B6B6B"></polygon><polygon points="444.08 213.22 444.08 224.94 433.92 230.81 433.92 219.08 444.08 213.22" style="fill:#6B6B6B"></polygon><polygon points="444.08 189.77 444.08 201.49 433.92 207.35 433.92 195.63 444.08 189.77" style="fill:#6B6B6B"></polygon><polygon points="444.08 172.18 444.08 183.9 433.92 189.77 433.92 178.04 444.08 172.18" style="fill:#6B6B6B"></polygon><g style="opacity:0.30000000000000004"><polygon points="403.45 336.34 403.45 348.07 393.3 353.93 393.3 342.2 403.45 336.34"></polygon><polygon points="403.45 318.75 403.45 330.48 393.3 336.34 393.3 324.62 403.45 318.75"></polygon><polygon points="403.45 295.3 403.45 307.03 393.3 312.89 393.3 301.16 403.45 295.3"></polygon><polygon points="403.45 277.71 403.45 289.44 393.3 295.3 393.3 283.57 403.45 277.71"></polygon><polygon points="403.45 172.15 403.45 183.87 393.3 189.74 393.3 178.01 403.45 172.15"></polygon><polygon points="403.45 154.56 403.45 166.28 393.3 172.15 393.3 160.42 403.45 154.56"></polygon><polygon points="403.45 131.11 403.45 142.83 393.3 148.69 393.3 136.97 403.45 131.11"></polygon><polygon points="403.45 113.52 403.45 125.24 393.3 131.11 393.3 119.38 403.45 113.52"></polygon><polygon points="423.76 324.69 423.76 336.41 413.61 342.28 413.61 330.55 423.76 324.69"></polygon><polygon points="423.76 307.1 423.76 318.83 413.61 324.69 413.61 312.96 423.76 307.1"></polygon><polygon points="423.76 283.65 423.76 295.37 413.61 301.24 413.61 289.51 423.76 283.65"></polygon><polygon points="423.76 266.06 423.76 277.79 413.61 283.65 413.61 271.92 423.76 266.06"></polygon><polygon points="423.76 160.49 423.76 172.22 413.61 178.08 413.61 166.36 423.76 160.49"></polygon><polygon points="423.76 142.91 423.76 154.63 413.61 160.49 413.61 148.77 423.76 142.91"></polygon><polygon points="423.76 119.45 423.76 131.18 413.61 137.04 413.61 125.32 423.76 119.45"></polygon><polygon points="423.76 101.86 423.76 113.59 413.61 119.45 413.61 107.73 423.76 101.86"></polygon><polygon points="444.08 313.04 444.08 324.76 433.92 330.62 433.92 318.9 444.08 313.04"></polygon><polygon points="444.08 295.45 444.08 307.17 433.92 313.04 433.92 301.31 444.08 295.45"></polygon><polygon points="444.08 271.99 444.08 283.72 433.92 289.58 433.92 277.86 444.08 271.99"></polygon><polygon points="444.08 254.41 444.08 266.13 433.92 271.99 433.92 260.27 444.08 254.41"></polygon><polygon points="444.08 148.84 444.08 160.57 433.92 166.43 433.92 154.7 444.08 148.84"></polygon><polygon points="444.08 131.25 444.08 142.98 433.92 148.84 433.92 137.12 444.08 131.25"></polygon><polygon points="444.08 107.8 444.08 119.53 433.92 125.39 433.92 113.66 444.08 107.8"></polygon><polygon points="444.08 90.21 444.08 101.94 433.92 107.8 433.92 96.07 444.08 90.21"></polygon><polygon points="403.45 254.11 403.45 265.84 393.3 271.7 393.3 259.98 403.45 254.11"></polygon><polygon points="403.45 236.53 403.45 248.25 393.3 254.12 393.3 242.39 403.45 236.53"></polygon><polygon points="403.45 213.07 403.45 224.8 393.3 230.66 393.3 218.94 403.45 213.07"></polygon><polygon points="403.45 195.48 403.45 207.21 393.3 213.07 393.3 201.35 403.45 195.48"></polygon><polygon points="423.76 242.46 423.76 254.19 413.61 260.05 413.61 248.32 423.76 242.46"></polygon><polygon points="423.76 224.87 423.76 236.6 413.61 242.46 413.61 230.74 423.76 224.87"></polygon><polygon points="423.76 201.42 423.76 213.15 413.61 219.01 413.61 207.28 423.76 201.42"></polygon><polygon points="423.76 183.83 423.76 195.56 413.61 201.42 413.61 189.69 423.76 183.83"></polygon><polygon points="444.08 230.81 444.08 242.53 433.92 248.4 433.92 236.67 444.08 230.81"></polygon><polygon points="444.08 213.22 444.08 224.94 433.92 230.81 433.92 219.08 444.08 213.22"></polygon><polygon points="444.08 189.77 444.08 201.49 433.92 207.35 433.92 195.63 444.08 189.77"></polygon><polygon points="444.08 172.18 444.08 183.9 433.92 189.77 433.92 178.04 444.08 172.18"></polygon></g><polygon points="322.21 78.34 322.21 336.34 327.35 333.37 327.35 75.37 322.21 78.34" style="fill:#6B6B6B"></polygon><polygon points="322.21 78.34 322.21 336.34 327.35 333.37 327.35 75.37 322.21 78.34" style="fill:#fff;opacity:0.65"></polygon><polygon points="454.23 72.47 362.83 19.7 291.75 60.75 322.21 78.34 327.35 75.37 357.82 92.95 352.68 95.92 383.14 113.51 454.23 72.47" style="fill:#6B6B6B"></polygon><polygon points="454.23 72.47 362.83 19.7 291.75 60.75 322.21 78.34 327.35 75.37 357.82 92.95 352.68 95.92 383.14 113.51 454.23 72.47" style="fill:#fff;opacity:0.9"></polygon><polygon points="362.68 95.92 367.82 92.95 327.35 69.6 322.21 72.56 301.75 60.75 362.83 25.48 444.23 72.47 383.14 107.74 362.68 95.92" style="fill:#6B6B6B"></polygon><polygon points="362.68 95.92 367.82 92.95 327.35 69.6 322.21 72.56 301.75 60.75 362.83 25.48 444.23 72.47 383.14 107.74 362.68 95.92" style="fill:#fff;opacity:0.6000000000000001"></polygon><polygon points="362.83 25.48 362.83 31.43 439.07 75.45 444.23 72.47 362.83 25.48" style="fill:#6B6B6B"></polygon><polygon points="362.83 25.48 362.83 31.43 439.07 75.45 444.23 72.47 362.83 25.48" style="fill:#fff;opacity:0.7000000000000001"></polygon><polygon points="301.75 60.75 306.98 63.77 362.83 31.43 362.83 25.48 301.75 60.75" style="fill:#6B6B6B"></polygon><polygon points="301.75 60.75 306.98 63.77 362.83 31.43 362.83 25.48 301.75 60.75" style="fill:#fff;opacity:0.8"></polygon><polygon points="362.83 25.47 356.86 34.77 432.81 79.06 444.23 72.47 362.83 25.47" style="opacity:0.05"></polygon><polygon points="327.35 75.37 327.35 333.37 352.68 348.06 352.68 95.92 357.82 92.95 327.35 75.37" style="fill:#6B6B6B"></polygon><polygon points="327.35 75.37 327.35 333.37 352.68 348.06 352.68 95.92 357.82 92.95 327.35 75.37" style="opacity:0.45"></polygon><polygon points="332.37 336.34 332.37 318.75 347.6 327.54 347.6 345.12 332.37 336.34" style="fill:#263238"></polygon><polygon points="343.93 315.06 347.6 317.18 347.6 95.92 343.93 93.8 343.93 315.06" style="fill:#6B6B6B"></polygon><polygon points="333.77 309.21 337.45 311.33 337.45 90.07 333.77 87.95 333.77 309.21" style="fill:#6B6B6B"></polygon><rect x="457.73" y="323.44" width="14.68" height="1.2" transform="translate(-34.34 592.15) rotate(-63.1)" style="fill:#263238"></rect><rect x="457.66" y="315.57" width="1.2" height="12.31" transform="matrix(0.85, -0.53, 0.53, 0.85, -100.72, 289.35)" style="fill:#263238"></rect><path d="M462.76,314.93v31.55a.49.49,0,0,1-.3.41,1.55,1.55,0,0,1-1.42,0,.5.5,0,0,1-.29-.41V314.93Z" style="fill:#263238"></path><circle cx="471.96" cy="305.11" r="14.65" style="fill:#455a64"></circle><path d="M476.55,301.36c1.89-5.95,3.9-8.28,2.63-9a14.65,14.65,0,1,0,4.08,22.08C478.92,315.7,474.1,309.08,476.55,301.36Z" style="fill:#37474f"></path><circle cx="448.87" cy="309.26" r="10.3" style="fill:#455a64"></circle><path d="M448.87,299a10.3,10.3,0,0,0-6,1.94c-.27,6.29,5.07,12.43,3.57,14.49s-5.17.8-6.45-.95a10.3,10.3,0,1,0,8.9-15.48Z" style="fill:#37474f"></path><circle cx="461.75" cy="298.15" r="18.89" transform="translate(65.48 679.05) rotate(-76.72)" style="fill:#455a64"></circle><path d="M480.14,302.47a18.89,18.89,0,1,1-27.68-20.76,18.9,18.9,0,0,0-4.43,3.46,19.2,19.2,0,0,0-.5,4.32,18.89,18.89,0,0,0,32.61,13Z" style="fill:#37474f"></path></g><g id="freepik--Character--inject-47"><polygon points="118.46 306.81 125.11 305.3 122.96 294.86 116.16 296.68 118.46 306.81" style="fill:#ffa8a7"></polygon><path d="M117.42,308.75c-.39.17-.15,1.74.08,2.16a5.2,5.2,0,0,0,2,1.76,8.65,8.65,0,0,1,3,2.53,14.49,14.49,0,0,0,4.9,3.84,9.54,9.54,0,0,0,7.72-.3c2.56-1.2,2.76-1.95,2.61-3Z" style="fill:#455a64"></path><path d="M125,301.46c.74,1.57,2.68,5.73,5.81,7.5,2.48,1.41,5.79,2.94,7,4.87s-3.25,3.8-5.25,3.9c-1.56.07-3.62.24-5.25-.6a13.73,13.73,0,0,1-2.27-1.48c-1.41-1.1-2.49-2.55-3.52-3.44s-3.13-1.67-3.83-2.81a8.13,8.13,0,0,1-.41-3.51c0-1.23-.15-2.35.41-2.55l.16.7a12.94,12.94,0,0,0,2.32-.16c.32-.06,1.13.83,1.44.66s-.38-.85,0-1.44A3.67,3.67,0,0,1,125,301.46Z" style="fill:#6B6B6B"></path><path d="M125,301.46c.74,1.57,2.68,5.73,5.81,7.5,2.48,1.41,5.79,2.94,7,4.87s-3.25,3.8-5.25,3.9c-1.56.07-3.62.24-5.25-.6a13.73,13.73,0,0,1-2.27-1.48c-1.41-1.1-2.49-2.55-3.52-3.44s-3.13-1.67-3.83-2.81a8.13,8.13,0,0,1-.41-3.51c0-1.23-.15-2.35.41-2.55l.16.7a12.94,12.94,0,0,0,2.32-.16c.32-.06,1.13.83,1.44.66s-.38-.85,0-1.44A3.67,3.67,0,0,1,125,301.46Z" style="opacity:0.30000000000000004"></path><path d="M127.29,317.13s.3-4,3.54-5.85,4.6-.51,5.16-.18,3.27,2.15,1.75,4.68A9.11,9.11,0,0,1,127.29,317.13Z" style="fill:#fafafa"></path><path d="M84.33,279.72l-4.19,6a2.91,2.91,0,0,0,1.13,3.67c1.69,1.25,3.91,1,4.42.41l3.8-4.14Z" style="fill:#ffa8a7"></path><path d="M76.5,288.09c-.38-.19-1.42,1-1.59,1.45a6.16,6.16,0,0,0,.21,2.7,12.8,12.8,0,0,1,.41,4.14,15.5,15.5,0,0,0,.51,5.75,8.84,8.84,0,0,0,8.64,6.62c3.37,0,4-1.36,4-2.14Z" style="fill:#455a64"></path><path d="M86.88,289.18c-.71,1.56-2.11,6-.18,9.83,1.3,2.59,1.91,5.11,1.21,7.25s-8.78-1.25-9.77-3a11.44,11.44,0,0,1-1.51-5.77c-.07-1.78.27-2.95.08-4.29s-1-3.26-.55-4.53a8.16,8.16,0,0,1,2.41-2.55c1-.76,1.68-1.62,2.19-1.32l-.33.55a5.21,5.21,0,0,0,1.51,1.68c.25.2.09,1.38.42,1.51s.4-.83,1.06-1A3.64,3.64,0,0,1,86.88,289.18Z" style="fill:#6B6B6B"></path><path d="M86.88,289.18c-.71,1.56-2.11,6-.18,9.83,1.3,2.59,1.91,5.11,1.21,7.25s-8.78-1.25-9.77-3a11.44,11.44,0,0,1-1.51-5.77c-.07-1.78.27-2.95.08-4.29s-1-3.26-.55-4.53a8.16,8.16,0,0,1,2.41-2.55c1-.76,1.68-1.62,2.19-1.32l-.33.55a5.21,5.21,0,0,0,1.51,1.68c.25.2.09,1.38.42,1.51s.4-.83,1.06-1A3.64,3.64,0,0,1,86.88,289.18Z" style="opacity:0.30000000000000004"></path><path d="M78.14,303.28a7.6,7.6,0,0,1,5.78-3.15c3.71-.05,4.41,1.51,4.73,2.07s1.63,3.72-.92,5.17A8.82,8.82,0,0,1,78.14,303.28Z" style="fill:#fafafa"></path><path d="M127.17,212.9c.15,4.31-1.72,25-4.87,33.24a76.82,76.82,0,0,1-6.55,13.46c-.94,1.61-26.26,26.77-26.26,26.77a7.38,7.38,0,0,1-6.77-4.73s10.93-17.09,13.33-20.95S105.5,249,105.5,249l1.28-36.47Z" style="fill:#455a64"></path><path d="M115.74,229.49a36.28,36.28,0,0,0,5.22-6c4.36-6,4.36-11.18,4.36-11.18l-2.46-.21L97,213.8a137.38,137.38,0,0,0,.21,14.1c1,11.7,9,34,9,34-.14,1.61.82,8,2.35,14,2.42,9.46,8.17,25.23,8.17,25.23s5.33,0,7.38-2.38c0,0-4-31.69-5-40C118.08,249.76,115.74,229.49,115.74,229.49Z" style="fill:#455a64"></path><path d="M118.42,253.25s-2-21.08-2.68-23.76c0,0,4.85-1.85,6.34-3.54a11.54,11.54,0,0,1-4.54,4.48Z" style="fill:#37474f"></path><path d="M102.91,252l3.31,10s.27,4.08.8,6.85l-1.4,1.42a33.06,33.06,0,0,1-.37-8Z" style="fill:#37474f"></path><path d="M123.35,200.68c-4-13-4.76-26-5.52-29.33l.25,0c5.19.27,8,2.4,9.19,7.51.82,3.67,2.93,16.47,4.28,22.12,1.19,5,2.8,11.16,4.72,15a3,3,0,0,0,1.54,1.44c2,.76,2.85,1.75,4.4,2.88,1.19.87,2.09,1,2,1.34a1.68,1.68,0,0,1-2,1.13,11.82,11.82,0,0,1-2.65-.88,15.74,15.74,0,0,0,3.24,3.81c2.91,2.5,3.34,4.28-1.48,5.18-3,.57-5.76-.86-9.23-7.11a55.26,55.26,0,0,1-3.46-7.09C126.33,210.27,124.56,204.61,123.35,200.68Z" style="fill:#ffa8a7"></path><path d="M133.46,208.24l1.78,5.37s-3-.19-6.57,3a19.67,19.67,0,0,1-1.78-5S128.2,208.79,133.46,208.24Z" style="fill:#6B6B6B"></path><path d="M133.46,208.24l1.78,5.37s-3-.19-6.57,3a19.67,19.67,0,0,1-1.78-5S128.2,208.79,133.46,208.24Z" style="opacity:0.45"></path><path d="M117.09,171.35s4-.71,6.64.91,4.17,4.86,5.19,11.5,2.19,13.23,3.16,16.62c1.55,5.46,2.38,6.73,1.38,7.86,0,0-4.87,1.43-6.57,3.4a6.73,6.73,0,0,1-2-3c-.94-2.3-3.32-11.62-4.35-15.85S116.68,174.87,117.09,171.35Z" style="fill:#6B6B6B"></path><path d="M117.09,171.35s4-.71,6.64.91,4.17,4.86,5.19,11.5,2.19,13.23,3.16,16.62c1.55,5.46,2.38,6.73,1.38,7.86,0,0-4.87,1.43-6.57,3.4a6.73,6.73,0,0,1-2-3c-.94-2.3-3.32-11.62-4.35-15.85S116.68,174.87,117.09,171.35Z" style="opacity:0.30000000000000004"></path><path d="M96.92,215.76l0,3.48s4.36,4.1,14.21,4.17a24.65,24.65,0,0,0,16-5.6l.21-3.42Z" style="fill:#6B6B6B"></path><path d="M96.92,215.76l0,3.48s4.36,4.1,14.21,4.17a24.65,24.65,0,0,0,16-5.6l.21-3.42Z" style="opacity:0.45"></path><path d="M126.92,182.12c-.56-4.67-2.61-10.35-9.83-10.77l-9.32.27c-2.31.56-4.87,1-7.28,1.83L96,193.28s-1.39,18.9.93,22.48c6.59,4.35,21.1,5.38,30.35-1.37C129.43,210.09,127.47,186.75,126.92,182.12Z" style="fill:#455a64"></path><path d="M126.92,182.12c-.56-4.67-2.61-10.35-9.83-10.77,0,0,2.36,5.27-.51,8.72A15.74,15.74,0,0,1,106.13,172c-1.85.42-3.79.84-5.64,1.45L96,193.28s-1.39,18.9.93,22.48c6.59,4.35,21.1,5.38,30.35-1.37C129.43,210.09,127.47,186.75,126.92,182.12Z" style="fill:#6B6B6B"></path><path d="M126.92,182.12c-.56-4.67-2.61-10.35-9.83-10.77,0,0,2.36,5.27-.51,8.72A15.74,15.74,0,0,1,106.13,172c-1.85.42-3.79.84-5.64,1.45L96,193.28s-1.39,18.9.93,22.48c6.59,4.35,21.1,5.38,30.35-1.37C129.43,210.09,127.47,186.75,126.92,182.12Z" style="opacity:0.15"></path><path d="M108.13,153.1a9.22,9.22,0,0,0,9,9.41c5,0,8-4.33,9-9.41,2-9.3-4-9.42-9-9.42A9.23,9.23,0,0,0,108.13,153.1Z" style="fill:#263238"></path><path d="M103.51,156.9a78.55,78.55,0,0,0,1.95,7.9,2.91,2.91,0,0,0,1.7,1.43l-.1-4.77Z" style="fill:#263238"></path><path d="M105.25,147.19s-1-.25-2,1.4c-.9,1.41-1.11,4.59.31,8.31l2.62.32Z" style="fill:#263238"></path><path d="M104.29,148.56l-3.2.06a1.51,1.51,0,0,1,1.46-1.69A1.76,1.76,0,0,1,104.29,148.56Z" style="fill:#263238"></path><path d="M103.9,147.8l-2.37-2.28a1.53,1.53,0,0,1,2.25-.09A1.75,1.75,0,0,1,103.9,147.8Z" style="fill:#263238"></path><path d="M106.91,157.22c-.53.32-1.27-.72-1.92-1.43a2.23,2.23,0,0,0-3.72.94c-1.07,2.35.74,4.59,2.24,5.34,2.7,1.34,3.55-.61,3.55-.61l.22,10.74c1.35,3.72,11.51,4.44,9.31-.28v-3.27a17.44,17.44,0,0,0,3.85.21c2.11-.34,3.43-2.07,4.07-4.44,1-3.81,1.41-6.88.54-14.37-1-8.21-10.12-8.3-15.07-5.05S106.91,157.22,106.91,157.22Z" style="fill:#ffa8a7"></path><path d="M118.34,148.76c-2.19-.21-4.36-.66-6.55-.82a4,4,0,0,0-1.42.07c-1.69.45-1.47,2.41-1.74,3.77-.46,2.35-.84,6.34-1.72,6.36-.26,0-1.27-1.73-1.92-2.35a3.4,3.4,0,0,1-.58-1.79,29.57,29.57,0,0,1-.33-2.95c-.07-.83-.15-1.68-.15-2.52a12,12,0,0,1,.22-2.81,4.9,4.9,0,0,1,1.17-2.11l.17-.18a11,11,0,0,1,3.92-2.64,23.39,23.39,0,0,1,6.63-1.44,66.34,66.34,0,0,0,6.76-.82.74.74,0,0,1,.39,0,.6.6,0,0,1,.32.5,2.78,2.78,0,0,1-1.13,2.75c1.51.12,3.25-.67,4.71-1.06a1,1,0,0,1,.74,0,.73.73,0,0,1,.29.42,2.74,2.74,0,0,1,0,1.21,7,7,0,0,1-1.3,3.33,8.22,8.22,0,0,1-4.52,2.95A13.07,13.07,0,0,1,118.34,148.76Z" style="fill:#263238"></path><path d="M116.58,168.65a34.68,34.68,0,0,1-6.34-1.89,5.54,5.54,0,0,1-2.27-2.34,7.93,7.93,0,0,0,1.29,2.76c1.2,1.6,7.32,2.77,7.32,2.77Z" style="fill:#f28f8f"></path><path d="M115.45,156a.94.94,0,1,1-.94-1A1,1,0,0,1,115.45,156Z" style="fill:#263238"></path><path d="M113.94,151.94l-2,1.16a1.28,1.28,0,0,1,.47-1.67A1.1,1.1,0,0,1,113.94,151.94Z" style="fill:#263238"></path><path d="M116.15,162.76l2.15.84a1.12,1.12,0,0,1-1.46.75A1.28,1.28,0,0,1,116.15,162.76Z" style="fill:#f28f8f"></path><path d="M124.08,152.8l-1.84-1.47a1.09,1.09,0,0,1,1.6-.26A1.31,1.31,0,0,1,124.08,152.8Z" style="fill:#263238"></path><path d="M123.27,155.72a.94.94,0,1,1-.94-1A1,1,0,0,1,123.27,155.72Z" style="fill:#263238"></path><polygon points="118.24 154.93 118.35 160.87 121.72 160.1 118.24 154.93" style="fill:#f28f8f"></polygon><path d="M103.13,223.13c-1.4-1-1.79-1.78-3.61-2.67a5.49,5.49,0,0,1-2-1.66c-2.16-3.5-4.81-11-5.81-15.18,3.28-5.79,7.69-15.2,7.69-15.2s6.18-5.62,1.06-15c-3.85,0-7.88,3.17-9.18,6.27-2.44,5.85-6.26,14-8.35,22.55a6.46,6.46,0,0,0,0,3.38c1.13,4,4.76,10.77,8,16.22a78,78,0,0,0,5.26,7.5,17.83,17.83,0,0,0,2.53,2.29,6.94,6.94,0,0,0,4.53-5.45,12.53,12.53,0,0,1-1.92-1.56,6,6,0,0,0,2.26.81c1.2,0,1.85-.44,1.83-.87S104.31,224,103.13,223.13Z" style="fill:#ffa8a7"></path><path d="M102.69,172.81c-3.19.09-7.58-.25-10.73,4.59s-9.13,21.29-10,23.76.33,7.81,2.58,11.37,3.35,3.86,3.35,3.86,3-3.78,6.77-3.82c0,0,.23-.89-.65-4.31-1-3.75-1.35-4.93-1.35-4.93L100.06,189a21.06,21.06,0,0,0,3-8.52C103.93,174.58,102.69,172.81,102.69,172.81Z" style="fill:#6B6B6B"></path><path d="M102.69,172.81c-3.19.09-7.58-.25-10.73,4.59s-9.13,21.29-10,23.76.33,7.81,2.58,11.37,3.35,3.86,3.35,3.86,3-3.78,6.77-3.82c0,0,.23-.89-.65-4.31-1-3.75-1.35-4.93-1.35-4.93L100.06,189a21.06,21.06,0,0,0,3-8.52C103.93,174.58,102.69,172.81,102.69,172.81Z" style="opacity:0.30000000000000004"></path><path d="M87.86,216.39l2.79,4.93s2.25-3.79,6.27-3.62l-2.29-5.13S90.73,211.87,87.86,216.39Z" style="fill:#6B6B6B"></path><path d="M87.86,216.39l2.79,4.93s2.25-3.79,6.27-3.62l-2.29-5.13S90.73,211.87,87.86,216.39Z" style="opacity:0.45"></path><path d="M116.58,180.07c-3.55-1.69-7.83-4.93-8.42-6.62a9.17,9.17,0,0,1-.94-4.21,16.25,16.25,0,0,0-7,1.8,2.36,2.36,0,0,0-1.25,2l3.75-.19a2.94,2.94,0,0,1,2.38.9c.82.8,1.67,3.09,5.25,4.95A12.82,12.82,0,0,0,116.58,180.07Z" style="fill:#6B6B6B"></path><path d="M116.58,180.07c-3.55-1.69-7.83-4.93-8.42-6.62a9.17,9.17,0,0,1-.94-4.21,16.25,16.25,0,0,0-7,1.8,2.36,2.36,0,0,0-1.25,2l3.75-.19a2.94,2.94,0,0,1,2.38.9c.82.8,1.67,3.09,5.25,4.95A12.82,12.82,0,0,0,116.58,180.07Z" style="opacity:0.35000000000000003"></path><path d="M116.58,180.07a6.58,6.58,0,0,0,3-3.9,7.53,7.53,0,0,0-.39-4.92,3.74,3.74,0,0,0-2.59-1.86v2a6,6,0,0,1,1,2.51C117.73,175.27,118,177.94,116.58,180.07Z" style="fill:#6B6B6B"></path><path d="M116.58,180.07a6.58,6.58,0,0,0,3-3.9,7.53,7.53,0,0,0-.39-4.92,3.74,3.74,0,0,0-2.59-1.86v2a6,6,0,0,1,1,2.51C117.73,175.27,118,177.94,116.58,180.07Z" style="opacity:0.35000000000000003"></path><path d="M115.74,196.35h0a.28.28,0,0,1-.25-.32,53.52,53.52,0,0,0-.29-15.1.3.3,0,0,1,.58-.11A54.66,54.66,0,0,1,116,196.1.29.29,0,0,1,115.74,196.35Z" style="fill:#455a64"></path><path d="M115.31,194.89a.57.57,0,0,1,.57-.56.57.57,0,0,1,0,1.13A.57.57,0,0,1,115.31,194.89Z" style="fill:#455a64"></path><path d="M119.18,199.42h0a.29.29,0,0,1-.26-.32,53.84,53.84,0,0,0-1.35-18.9.3.3,0,0,1,.2-.36.29.29,0,0,1,.36.2,54.54,54.54,0,0,1,1.37,19.12A.29.29,0,0,1,119.18,199.42Z" style="fill:#455a64"></path><path d="M118.73,198a.56.56,0,0,1,.56-.56.57.57,0,0,1,.57.56.58.58,0,0,1-.57.57A.57.57,0,0,1,118.73,198Z" style="fill:#455a64"></path></g></svg>