<svg xmlns="http://www.w3.org/2000/svg" viewBox="0 0 500 500"><g id="freepik--background-simple--inject-2"><path d="M194.25,157.57c21.7-41.45,33.54-80.86,85.65-88.11C325.16,63.16,378,89.77,408,122.53c58.33,63.56,9.95,206.63-81.43,193.28-61.78-9-83.73-25.11-142.79-4.27-39,13.75-90.51,14.39-120.68-19.87-30.89-35.08-4.36-58.13,31.06-72C134.39,204,169.84,204.16,194.25,157.57Z" style="fill:#353535"></path><path d="M194.25,157.57c21.7-41.45,33.54-80.86,85.65-88.11C325.16,63.16,378,89.77,408,122.53c58.33,63.56,9.95,206.63-81.43,193.28-61.78-9-83.73-25.11-142.79-4.27-39,13.75-90.51,14.39-120.68-19.87-30.89-35.08-4.36-58.13,31.06-72C134.39,204,169.84,204.16,194.25,157.57Z" style="fill:#fff;opacity:0.9"></path></g><g id="freepik--Shadow--inject-2"><ellipse cx="250" cy="416.24" rx="193.89" ry="11.32" style="fill:#f5f5f5"></ellipse></g><g id="freepik--Shield--inject-2"><path d="M245.46,142.81c1.36,17,21,39.08,27.28,45.76a2.64,2.64,0,0,0,3.86,0c6.3-6.68,25.92-28.77,27.28-45.76a2.69,2.69,0,0,0-1.39-2.6l-26.56-14.33a2.62,2.62,0,0,0-2.52,0l-26.56,14.33A2.71,2.71,0,0,0,245.46,142.81Z" style="fill:#353535"></path><path d="M272.7,182.13c-8-9-19.6-24.13-22.37-36.17a2.69,2.69,0,0,1,1.28-2.92l21.74-12.5a2.67,2.67,0,0,1,2.65,0L297.74,143A2.68,2.68,0,0,1,299,146c-2.76,12.06-14.32,27.13-22.36,36.17A2.63,2.63,0,0,1,272.7,182.13Z" style="fill:#353535;opacity:0.30000000000000004"></path><path d="M272.7,182.13c-8-9-19.6-24.13-22.37-36.17a2.69,2.69,0,0,1,1.28-2.92l21.74-12.5a2.67,2.67,0,0,1,2.65,0L297.74,143A2.68,2.68,0,0,1,299,146c-2.76,12.06-14.32,27.13-22.36,36.17A2.63,2.63,0,0,1,272.7,182.13Z" style="fill:#fff;opacity:0.30000000000000004"></path><path d="M271.71,163.88a1.49,1.49,0,0,1-1.06-.44L263.24,156a1.5,1.5,0,0,1,2.12-2.12l6.35,6.34,15-14.95a1.51,1.51,0,0,1,2.12,0,1.49,1.49,0,0,1,0,2.12l-16,16A1.53,1.53,0,0,1,271.71,163.88Z" style="fill:#fff"></path></g><g id="freepik--Vault--inject-2"><rect x="184" y="204.33" width="162.67" height="205.9" rx="12" style="fill:#263238"></rect><rect x="193.34" y="204.33" width="162.67" height="205.9" rx="12" style="fill:#353535"></rect><rect x="207.51" y="410.24" width="15" height="3.67" rx="0.75" style="fill:#263238"></rect><rect x="326.83" y="410.24" width="15" height="3.67" rx="0.75" style="fill:#263238"></rect><rect x="193.34" y="204.33" width="162.67" height="205.9" rx="12" style="opacity:0.2"></rect><path d="M327.67,386.49h-106a4.59,4.59,0,0,1-4.58-4.58V232.67a4.59,4.59,0,0,1,4.58-4.59h106a4.59,4.59,0,0,1,4.58,4.59V381.91A4.59,4.59,0,0,1,327.67,386.49Zm-106-157.91a4.09,4.09,0,0,0-4.08,4.09V381.91a4.08,4.08,0,0,0,4.08,4.08h106a4.08,4.08,0,0,0,4.08-4.08V232.67a4.09,4.09,0,0,0-4.08-4.09Z" style="fill:#e6e6e6;opacity:0.4;mix-blend-mode:color-dodge"></path><rect x="197.72" y="251.95" width="153.91" height="110.67" rx="2.33" transform="translate(581.96 32.61) rotate(90)" style="fill:#353535"></rect><rect x="197.72" y="251.95" width="153.91" height="110.67" rx="2.33" transform="translate(581.96 32.61) rotate(90)" style="fill:#fff;opacity:0.1"></rect><rect x="358.5" y="246.78" width="1" height="8.44" style="fill:#353535"></rect><rect x="358.5" y="216.33" width="1" height="21.56" style="fill:#353535"></rect><circle cx="274.67" cy="310.2" r="34.1" style="opacity:0.1"></circle><circle cx="274.67" cy="251.23" r="8.33" style="fill:#353535"></circle><circle cx="274.62" cy="251.21" r="8.33" style="fill:#fff;opacity:0.6000000000000001"></circle><path d="M274.67,257.81a6.58,6.58,0,1,1,6.58-6.58A6.59,6.59,0,0,1,274.67,257.81Zm0-12.66a6.08,6.08,0,1,0,6.08,6.08A6.09,6.09,0,0,0,274.67,245.15Z" style="fill:#353535"></path><rect x="214.01" y="249.93" width="6.67" height="23.26" rx="1.48" style="fill:#353535"></rect><rect x="214.01" y="249.93" width="6.67" height="23.26" rx="1.48" style="fill:#fff;opacity:0.6000000000000001"></rect><rect x="214.01" y="341.38" width="6.67" height="23.26" rx="1.48" style="fill:#353535"></rect><rect x="214.01" y="341.38" width="6.67" height="23.26" rx="1.48" style="fill:#fff;opacity:0.6000000000000001"></rect><circle cx="274.67" cy="307.29" r="34.1" style="fill:#353535"></circle><circle cx="274.67" cy="307.29" r="34.1" style="fill:#fff;opacity:0.6000000000000001"></circle><rect x="273.67" y="282.42" width="2" height="49.74" transform="translate(-136.83 284.22) rotate(-45)" style="fill:#353535"></rect><rect x="249.8" y="306.29" width="49.74" height="2" transform="translate(-136.83 284.22) rotate(-45)" style="fill:#353535"></rect><rect x="249.7" y="306.17" width="49.74" height="2" transform="translate(-136.79 284.12) rotate(-45)" style="opacity:0.2"></rect><rect x="273.57" y="282.31" width="2" height="49.74" transform="translate(-136.79 284.12) rotate(-45)" style="opacity:0.2"></rect><path d="M274.57,333.06a25.89,25.89,0,1,1,25.88-25.89A25.91,25.91,0,0,1,274.57,333.06Zm0-49.78a23.89,23.89,0,1,0,23.88,23.89A23.91,23.91,0,0,0,274.57,283.28Z" style="fill:#353535"></path><circle cx="274.57" cy="307.17" r="10.83" transform="translate(-136.79 284.12) rotate(-45)" style="fill:#353535"></circle><path d="M274.57,333.06a25.89,25.89,0,1,1,25.88-25.89A25.91,25.91,0,0,1,274.57,333.06Zm0-49.78a23.89,23.89,0,1,0,23.88,23.89A23.91,23.91,0,0,0,274.57,283.28Z" style="opacity:0.2"></path><circle cx="274.57" cy="307.17" r="10.83" transform="translate(-136.79 284.12) rotate(-45)" style="opacity:0.2"></circle></g></svg>