<svg xmlns="http://www.w3.org/2000/svg" xmlns:xlink="http://www.w3.org/1999/xlink" width="500" zoomAndPan="magnify" viewBox="0 0 375 374.999991" height="500" preserveAspectRatio="xMidYMid meet" version="1.0"><defs><g/><clipPath id="b7e3dac390"><path d="M 156 144 L 207 144 L 207 225 L 156 225 Z M 156 144 " clip-rule="nonzero"/></clipPath><clipPath id="a210dcbc00"><path d="M 164.90625 142.265625 L 209.363281 222.132812 L 198.613281 228.117188 L 154.152344 148.25 Z M 164.90625 142.265625 " clip-rule="nonzero"/></clipPath><clipPath id="6b381af47a"><path d="M 167.859375 147.578125 L 205.628906 215.421875 C 206.410156 216.828125 206.605469 218.492188 206.164062 220.042969 C 205.722656 221.589844 204.683594 222.902344 203.273438 223.6875 C 201.867188 224.46875 200.203125 224.664062 198.652344 224.222656 C 197.101562 223.78125 195.792969 222.742188 195.007812 221.332031 L 157.242188 153.488281 C 156.457031 152.082031 156.265625 150.417969 156.707031 148.867188 C 157.148438 147.316406 158.1875 146.007812 159.59375 145.222656 C 161.003906 144.4375 162.664062 144.246094 164.214844 144.6875 C 165.765625 145.128906 167.078125 146.167969 167.859375 147.578125 " clip-rule="nonzero"/></clipPath></defs><rect x="-37.5" width="450" fill="#ffffff" y="-37.499999" height="449.999989" fill-opacity="1"/><rect x="-37.5" width="450" fill="#ffffff" y="-37.499999" height="449.999989" fill-opacity="1"/><rect x="-37.5" width="450" fill="#eef1f4" y="-37.499999" height="449.999989" fill-opacity="1"/><g fill="#6b6b6b" fill-opacity="1"><g transform="translate(158.592811, 233.917984)"><g><path d="M 94.597656 0 C 96.457031 0 97.15625 -1.164062 97.15625 -3.023438 L 97.15625 -78.421875 C 97.15625 -80.285156 96.457031 -81.449219 94.597656 -81.449219 L 83.660156 -81.449219 C 81.566406 -81.449219 80.632812 -81.097656 79.820312 -79.585938 L 56.664062 -37.699219 L 30.484375 -79.003906 C 29.4375 -80.75 27.925781 -81.449219 26.179688 -81.449219 L 6.863281 -81.449219 C 5.816406 -81.449219 5.703125 -80.867188 5.703125 -80.167969 L 10.703125 -72.140625 L 10.703125 -3.023438 C 10.703125 -1.164062 11.402344 0 13.265625 0 L 27.691406 0 C 29.554688 0 30.253906 -1.164062 30.253906 -3.023438 C 30.253906 -5.234375 28.738281 -6.167969 27.460938 -7.796875 L 12.332031 -33.160156 L 12.332031 -69.464844 L 45.261719 -16.753906 L 47.125 -16.753906 L 74.699219 -66.4375 L 74.699219 -3.023438 C 74.699219 -1.164062 75.398438 0 77.257812 0 Z M 94.597656 0 "/></g></g></g><g fill="#353535" fill-opacity="1"><g transform="translate(90.309989, 176.988651)"><g><path d="M 4.820312 -42.285156 C 4.820312 -13.011719 20.722656 1.203125 49.996094 1.203125 L 78.066406 0 C 80.234375 -0.242188 80.714844 -1.203125 80.714844 -3.132812 L 80.714844 -18.792969 C 80.714844 -20.480469 80.234375 -21.203125 79.03125 -21.683594 L 77.585938 -22.289062 C 77.101562 -22.40625 76.742188 -22.527344 76.257812 -22.527344 C 75.296875 -22.527344 74.453125 -22.167969 73.609375 -21.324219 L 51.683594 -0.480469 C 38.429688 -0.480469 27.707031 -23.492188 27.707031 -42.285156 C 27.707031 -61.078125 38.429688 -84.089844 51.683594 -84.089844 L 73.609375 -63.25 C 74.453125 -62.40625 75.296875 -62.042969 76.257812 -62.042969 C 76.742188 -62.042969 77.101562 -62.164062 77.585938 -62.285156 L 79.03125 -62.886719 C 80.234375 -63.367188 80.714844 -64.089844 80.714844 -65.777344 L 80.714844 -81.4375 C 80.714844 -83.367188 80.234375 -84.332031 78.066406 -84.570312 L 49.996094 -85.777344 C 20.722656 -85.777344 4.820312 -71.5625 4.820312 -42.285156 Z M 4.820312 -42.285156 "/></g></g></g><g clip-path="url(#b7e3dac390)"><g clip-path="url(#a210dcbc00)"><g clip-path="url(#6b381af47a)"><path fill="#eef1f4" d="M 164.90625 142.265625 L 208.507812 220.597656 L 197.757812 226.582031 L 154.152344 148.25 Z M 164.90625 142.265625 " fill-opacity="1" fill-rule="nonzero"/></g></g></g><g fill="#353535" fill-opacity="1"><g transform="translate(94.318534, 263.49754)"><g><path d="M 15.988281 -4.828125 C 14.9375 -1.84375 12.917969 -1.023438 11.273438 -1.023438 C 7.582031 -1.023438 5.90625 -5.082031 5.90625 -9.910156 C 5.90625 -14.113281 7.070312 -16.667969 9.996094 -16.667969 C 12.351562 -16.667969 13.828125 -14.992188 14.9375 -12.605469 L 17.265625 -12.605469 C 16.609375 -14.253906 16.269531 -15.929688 16.183594 -17.605469 C 15.304688 -17.347656 14.9375 -17.347656 14.566406 -17.347656 C 12.777344 -17.347656 12.066406 -18.085938 9.882812 -18.085938 C 4.828125 -18.085938 0.992188 -14.59375 0.992188 -9 C 0.992188 -3.492188 4.714844 0.453125 10.25 0.453125 C 14.851562 0.453125 16.867188 -2.214844 17.519531 -4.828125 Z M 15.988281 -4.828125 "/></g></g></g><g fill="#353535" fill-opacity="1"><g transform="translate(112.405885, 263.49754)"><g><path d="M 8.035156 -14.480469 C 4.855469 -14.480469 0.851562 -12.265625 0.851562 -7.128906 C 0.851562 -2.128906 4.855469 0.3125 8.007812 0.3125 C 11.1875 0.3125 15.191406 -1.902344 15.191406 -7.042969 C 15.191406 -12.039062 11.1875 -14.480469 8.035156 -14.480469 Z M 8.488281 -0.9375 C 6.757812 -0.9375 5.507812 -4.089844 5.507812 -8.574219 C 5.507812 -11.328125 6.160156 -13.230469 7.554688 -13.230469 C 9.285156 -13.230469 10.535156 -10.109375 10.535156 -5.621094 C 10.535156 -2.839844 9.882812 -0.9375 8.488281 -0.9375 Z M 8.488281 -0.9375 "/></g></g></g><g fill="#353535" fill-opacity="1"><g transform="translate(128.448818, 263.49754)"><g><path d="M 15.871094 -2.1875 L 15.871094 -9.484375 C 15.871094 -13.542969 13.628906 -14.539062 11.613281 -14.539062 C 8.632812 -14.539062 6.929688 -12.410156 6.390625 -11.328125 L 6.21875 -11.328125 L 6.585938 -13.714844 C 6.445312 -14.082031 6.132812 -14.367188 5.765625 -14.539062 C 3.976562 -13.515625 2.441406 -13.0625 0.484375 -12.636719 L 0.484375 -11.5 C 1.535156 -11.699219 2.214844 -11.386719 2.214844 -10.136719 L 2.214844 -2.1875 C 2.214844 -1.476562 1.449219 -1.25 0.398438 -1.136719 L 0.398438 0 C 3.125 -0.0859375 5.792969 -0.0859375 8.519531 0 L 8.519531 -1.136719 C 7.441406 -1.222656 6.671875 -1.476562 6.671875 -2.1875 L 6.671875 -9.996094 C 6.84375 -10.820312 7.835938 -12.492188 9.484375 -12.492188 C 10.703125 -12.492188 11.414062 -11.613281 11.414062 -9.484375 L 11.414062 -2.1875 C 11.414062 -1.476562 10.648438 -1.222656 9.570312 -1.136719 L 9.570312 0 C 12.324219 -0.0859375 14.992188 -0.0859375 17.71875 0 L 17.71875 -1.136719 C 16.640625 -1.25 15.871094 -1.476562 15.871094 -2.1875 Z M 15.871094 -2.1875 "/></g></g></g><g fill="#353535" fill-opacity="1"><g transform="translate(146.592955, 263.49754)"><g><path d="M 15.277344 -3.492188 L 15.277344 -14.90625 C 15.277344 -16.726562 15.277344 -17.804688 15.445312 -19.167969 C 15.277344 -19.535156 14.992188 -19.820312 14.625 -19.988281 C 12.949219 -19.023438 10.933594 -18.429688 9.085938 -18.085938 L 9.085938 -16.953125 C 10.222656 -17.152344 10.820312 -16.839844 10.820312 -15.617188 L 10.820312 -12.917969 C 10.421875 -13.316406 9.484375 -14.480469 7.324219 -14.480469 C 4.371094 -14.480469 0.851562 -12.152344 0.851562 -7.15625 C 0.851562 -1.902344 4.542969 0.3125 7.410156 0.3125 C 9.457031 0.3125 10.535156 -0.796875 10.960938 -1.730469 L 11.160156 -1.730469 L 10.960938 -0.398438 C 11.101562 -0.0585938 11.328125 0.226562 11.8125 0.398438 C 13.203125 0.0859375 15.164062 -0.285156 17.121094 -0.3125 L 17.121094 -1.503906 C 16.015625 -1.617188 15.277344 -2.128906 15.277344 -3.492188 Z M 10.820312 -3.71875 C 10.675781 -2.582031 9.796875 -0.9375 8.546875 -0.9375 C 6.929688 -0.9375 5.507812 -3.804688 5.507812 -8.035156 C 5.507812 -11.015625 6.390625 -13.230469 8.121094 -13.230469 C 9.425781 -13.230469 10.449219 -12.011719 10.820312 -11.527344 Z M 10.820312 -3.71875 "/></g></g></g><g fill="#353535" fill-opacity="1"><g transform="translate(164.282774, 263.49754)"><g><path d="M 8.035156 -14.480469 C 4.855469 -14.480469 0.851562 -12.265625 0.851562 -7.128906 C 0.851562 -2.128906 4.855469 0.3125 8.007812 0.3125 C 11.1875 0.3125 15.191406 -1.902344 15.191406 -7.042969 C 15.191406 -12.039062 11.1875 -14.480469 8.035156 -14.480469 Z M 8.488281 -0.9375 C 6.757812 -0.9375 5.507812 -4.089844 5.507812 -8.574219 C 5.507812 -11.328125 6.160156 -13.230469 7.554688 -13.230469 C 9.285156 -13.230469 10.535156 -10.109375 10.535156 -5.621094 C 10.535156 -2.839844 9.882812 -0.9375 8.488281 -0.9375 Z M 8.488281 -0.9375 "/></g></g></g><g fill="#353535" fill-opacity="1"><g transform="translate(180.325707, 263.49754)"><g><path d="M 24.363281 -2.1875 L 24.363281 -9.484375 C 24.363281 -13.542969 22.289062 -14.539062 20.300781 -14.539062 C 17.546875 -14.539062 15.929688 -12.636719 15.304688 -11.527344 C 14.707031 -13.886719 13.035156 -14.539062 11.472656 -14.539062 C 8.519531 -14.539062 6.871094 -12.351562 6.390625 -11.328125 L 6.21875 -11.328125 L 6.585938 -13.714844 C 6.445312 -14.082031 6.132812 -14.367188 5.765625 -14.539062 C 3.976562 -13.515625 2.441406 -13.0625 0.484375 -12.636719 L 0.484375 -11.5 C 1.535156 -11.699219 2.214844 -11.359375 2.214844 -10.136719 L 2.214844 -2.1875 C 2.214844 -1.476562 1.449219 -1.25 0.398438 -1.136719 L 0.398438 0 C 3.125 -0.0859375 5.792969 -0.0859375 8.519531 0 L 8.519531 -1.136719 C 7.441406 -1.222656 6.671875 -1.476562 6.671875 -2.1875 L 6.671875 -9.996094 C 6.898438 -10.820312 7.695312 -12.492188 9.34375 -12.492188 C 10.507812 -12.492188 11.074219 -11.613281 11.074219 -9.484375 L 11.074219 -2.1875 C 11.074219 -1.476562 10.277344 -1.222656 9.199219 -1.136719 L 9.199219 0 C 11.984375 -0.0859375 14.652344 -0.0859375 17.378906 0 L 17.378906 -1.136719 C 16.296875 -1.25 15.53125 -1.476562 15.53125 -2.1875 L 15.53125 -10.050781 C 15.757812 -10.875 16.582031 -12.492188 18.171875 -12.492188 C 19.335938 -12.492188 19.90625 -11.613281 19.90625 -9.484375 L 19.90625 -2.1875 C 19.90625 -1.476562 19.136719 -1.222656 18.058594 -1.136719 L 18.058594 0 C 20.8125 -0.0859375 23.484375 -0.0859375 26.207031 0 L 26.207031 -1.136719 C 25.128906 -1.25 24.363281 -1.476562 24.363281 -2.1875 Z M 24.363281 -2.1875 "/></g></g></g><g fill="#353535" fill-opacity="1"><g transform="translate(206.959826, 263.49754)"><g><path d="M 4.488281 -15.902344 C 5.765625 -15.902344 6.757812 -16.953125 6.757812 -18.230469 C 6.757812 -19.507812 5.765625 -20.5 4.488281 -20.5 C 3.207031 -20.5 2.15625 -19.507812 2.15625 -18.230469 C 2.15625 -16.953125 3.207031 -15.902344 4.488281 -15.902344 Z M 6.785156 -2.1875 L 6.785156 -9.425781 C 6.785156 -11.273438 6.785156 -12.351562 6.957031 -13.714844 C 6.785156 -14.082031 6.503906 -14.367188 6.105469 -14.539062 C 4.457031 -13.574219 2.441406 -12.976562 0.566406 -12.636719 L 0.566406 -11.5 C 1.730469 -11.699219 2.328125 -11.386719 2.328125 -10.136719 L 2.328125 -2.1875 C 2.328125 -1.476562 1.5625 -1.25 0.566406 -1.136719 L 0.566406 0 C 3.238281 -0.0585938 5.933594 -0.0585938 8.605469 0 L 8.605469 -1.136719 C 7.523438 -1.25 6.785156 -1.476562 6.785156 -2.1875 Z M 6.785156 -2.1875 "/></g></g></g><g fill="#353535" fill-opacity="1"><g transform="translate(216.131269, 263.49754)"><g><path d="M 15.871094 -2.1875 L 15.871094 -9.484375 C 15.871094 -13.542969 13.628906 -14.539062 11.613281 -14.539062 C 8.632812 -14.539062 6.929688 -12.410156 6.390625 -11.328125 L 6.21875 -11.328125 L 6.585938 -13.714844 C 6.445312 -14.082031 6.132812 -14.367188 5.765625 -14.539062 C 3.976562 -13.515625 2.441406 -13.0625 0.484375 -12.636719 L 0.484375 -11.5 C 1.535156 -11.699219 2.214844 -11.386719 2.214844 -10.136719 L 2.214844 -2.1875 C 2.214844 -1.476562 1.449219 -1.25 0.398438 -1.136719 L 0.398438 0 C 3.125 -0.0859375 5.792969 -0.0859375 8.519531 0 L 8.519531 -1.136719 C 7.441406 -1.222656 6.671875 -1.476562 6.671875 -2.1875 L 6.671875 -9.996094 C 6.84375 -10.820312 7.835938 -12.492188 9.484375 -12.492188 C 10.703125 -12.492188 11.414062 -11.613281 11.414062 -9.484375 L 11.414062 -2.1875 C 11.414062 -1.476562 10.648438 -1.222656 9.570312 -1.136719 L 9.570312 0 C 12.324219 -0.0859375 14.992188 -0.0859375 17.71875 0 L 17.71875 -1.136719 C 16.640625 -1.25 15.871094 -1.476562 15.871094 -2.1875 Z M 15.871094 -2.1875 "/></g></g></g><g fill="#353535" fill-opacity="1"><g transform="translate(234.275406, 263.49754)"><g><path d="M 4.488281 -15.902344 C 5.765625 -15.902344 6.757812 -16.953125 6.757812 -18.230469 C 6.757812 -19.507812 5.765625 -20.5 4.488281 -20.5 C 3.207031 -20.5 2.15625 -19.507812 2.15625 -18.230469 C 2.15625 -16.953125 3.207031 -15.902344 4.488281 -15.902344 Z M 6.785156 -2.1875 L 6.785156 -9.425781 C 6.785156 -11.273438 6.785156 -12.351562 6.957031 -13.714844 C 6.785156 -14.082031 6.503906 -14.367188 6.105469 -14.539062 C 4.457031 -13.574219 2.441406 -12.976562 0.566406 -12.636719 L 0.566406 -11.5 C 1.730469 -11.699219 2.328125 -11.386719 2.328125 -10.136719 L 2.328125 -2.1875 C 2.328125 -1.476562 1.5625 -1.25 0.566406 -1.136719 L 0.566406 0 C 3.238281 -0.0585938 5.933594 -0.0585938 8.605469 0 L 8.605469 -1.136719 C 7.523438 -1.25 6.785156 -1.476562 6.785156 -2.1875 Z M 6.785156 -2.1875 "/></g></g></g><g fill="#353535" fill-opacity="1"><g transform="translate(243.446849, 263.49754)"><g><path d="M 15.675781 -3.492188 L 15.675781 -13.542969 C 15.675781 -14.113281 15.21875 -14.367188 14.820312 -14.339844 L 9.570312 -14.027344 L 9.570312 -12.890625 L 10.421875 -12.863281 C 10.988281 -12.835938 11.214844 -12.605469 11.214844 -12.011719 L 11.214844 -4.488281 C 10.875 -3.4375 9.796875 -1.535156 8.234375 -1.535156 C 6.871094 -1.535156 6.53125 -2.953125 6.53125 -4.914062 L 6.53125 -13.542969 C 6.53125 -14.113281 6.105469 -14.367188 5.652344 -14.339844 L 0.425781 -14.027344 L 0.425781 -12.890625 L 1.277344 -12.863281 C 1.84375 -12.835938 2.074219 -12.605469 2.074219 -12.011719 L 2.074219 -4.65625 C 2.074219 -0.597656 4.457031 0.453125 6.445312 0.453125 C 9.457031 0.453125 11.046875 -1.960938 11.441406 -2.980469 L 11.640625 -2.980469 L 11.386719 -0.398438 C 11.5 -0.0585938 11.753906 0.226562 12.179688 0.398438 C 13.628906 0.0859375 15.558594 -0.285156 17.519531 -0.3125 L 17.519531 -1.503906 C 16.414062 -1.617188 15.675781 -2.128906 15.675781 -3.492188 Z M 15.675781 -3.492188 "/></g></g></g><g fill="#353535" fill-opacity="1"><g transform="translate(261.392225, 263.49754)"><g><path d="M 24.363281 -2.1875 L 24.363281 -9.484375 C 24.363281 -13.542969 22.289062 -14.539062 20.300781 -14.539062 C 17.546875 -14.539062 15.929688 -12.636719 15.304688 -11.527344 C 14.707031 -13.886719 13.035156 -14.539062 11.472656 -14.539062 C 8.519531 -14.539062 6.871094 -12.351562 6.390625 -11.328125 L 6.21875 -11.328125 L 6.585938 -13.714844 C 6.445312 -14.082031 6.132812 -14.367188 5.765625 -14.539062 C 3.976562 -13.515625 2.441406 -13.0625 0.484375 -12.636719 L 0.484375 -11.5 C 1.535156 -11.699219 2.214844 -11.359375 2.214844 -10.136719 L 2.214844 -2.1875 C 2.214844 -1.476562 1.449219 -1.25 0.398438 -1.136719 L 0.398438 0 C 3.125 -0.0859375 5.792969 -0.0859375 8.519531 0 L 8.519531 -1.136719 C 7.441406 -1.222656 6.671875 -1.476562 6.671875 -2.1875 L 6.671875 -9.996094 C 6.898438 -10.820312 7.695312 -12.492188 9.34375 -12.492188 C 10.507812 -12.492188 11.074219 -11.613281 11.074219 -9.484375 L 11.074219 -2.1875 C 11.074219 -1.476562 10.277344 -1.222656 9.199219 -1.136719 L 9.199219 0 C 11.984375 -0.0859375 14.652344 -0.0859375 17.378906 0 L 17.378906 -1.136719 C 16.296875 -1.25 15.53125 -1.476562 15.53125 -2.1875 L 15.53125 -10.050781 C 15.757812 -10.875 16.582031 -12.492188 18.171875 -12.492188 C 19.335938 -12.492188 19.90625 -11.613281 19.90625 -9.484375 L 19.90625 -2.1875 C 19.90625 -1.476562 19.136719 -1.222656 18.058594 -1.136719 L 18.058594 0 C 20.8125 -0.0859375 23.484375 -0.0859375 26.207031 0 L 26.207031 -1.136719 C 25.128906 -1.25 24.363281 -1.476562 24.363281 -2.1875 Z M 24.363281 -2.1875 "/></g></g></g><g fill="#6b6b6b" fill-opacity="1"><g transform="translate(140.003901, 296.531964)"><g><path d="M 3.910156 0.117188 C 4.140625 0.15625 4.257812 0.078125 4.375 -0.078125 L 4.722656 -0.65625 C 5.070312 -1.433594 5.421875 -2.207031 5.730469 -3.019531 C 6.621094 -5.265625 7.472656 -7.589844 8.402344 -9.832031 C 9.332031 -12.234375 10.296875 -14.59375 11.34375 -16.957031 C 12.195312 -18.738281 13.085938 -20.480469 14.167969 -22.144531 C 14.789062 -23.074219 15.484375 -23.964844 16.261719 -24.777344 C 16.414062 -24.933594 16.570312 -25.085938 16.761719 -25.203125 C 16.800781 -25.242188 16.917969 -25.203125 16.917969 -25.125 C 16.878906 -25.011719 16.878906 -24.894531 16.878906 -24.816406 C 16.570312 -23.304688 16.183594 -21.875 15.679688 -20.441406 C 15.019531 -18.351562 14.285156 -16.300781 13.589844 -14.207031 C 12.699219 -11.5 11.847656 -8.75 11.382812 -5.882812 C 11.265625 -5.070312 11.109375 -4.257812 11.109375 -3.445312 C 11.109375 -2.828125 11.1875 -2.789062 11.769531 -2.671875 C 12 -2.632812 12.117188 -2.671875 12.234375 -2.828125 C 12.390625 -3.058594 12.503906 -3.289062 12.660156 -3.5625 C 13.394531 -4.917969 13.976562 -6.347656 14.59375 -7.78125 C 15.292969 -9.40625 15.949219 -11.074219 16.6875 -12.660156 C 17.226562 -13.742188 17.808594 -14.789062 18.503906 -15.757812 C 18.738281 -16.105469 19.007812 -16.414062 19.320312 -16.6875 C 19.359375 -16.6875 19.394531 -16.726562 19.472656 -16.726562 C 19.511719 -16.6875 19.550781 -16.648438 19.550781 -16.609375 C 19.550781 -16.375 19.550781 -16.183594 19.511719 -15.949219 C 19.433594 -15.097656 19.320312 -14.246094 19.203125 -13.394531 C 19.125 -12.582031 19.085938 -11.769531 19.164062 -10.957031 C 19.164062 -10.570312 19.242188 -10.183594 19.359375 -9.832031 C 19.628906 -9.097656 20.09375 -8.59375 20.828125 -8.363281 L 21.292969 -8.246094 C 22.378906 -7.898438 23.382812 -8.089844 24.3125 -8.75 C 24.933594 -9.214844 25.550781 -9.757812 26.09375 -10.335938 L 27.875 -12.273438 C 27.914062 -12.351562 27.992188 -12.425781 28.070312 -12.503906 C 28.105469 -12.582031 28.105469 -12.621094 28.070312 -12.660156 C 27.875 -12.851562 27.605469 -12.816406 27.410156 -12.621094 C 27.332031 -12.582031 27.292969 -12.503906 27.214844 -12.425781 C 26.636719 -11.769531 26.015625 -11.109375 25.398438 -10.492188 C 24.855469 -9.910156 24.234375 -9.367188 23.578125 -8.941406 C 22.996094 -8.59375 22.378906 -8.363281 21.679688 -8.363281 C 21.101562 -8.402344 20.671875 -8.671875 20.363281 -9.136719 C 20.171875 -9.445312 20.015625 -9.832031 19.976562 -10.222656 C 19.785156 -11.148438 19.820312 -12.117188 19.898438 -13.085938 L 20.246094 -15.835938 C 20.285156 -16.105469 20.246094 -16.375 20.171875 -16.648438 C 20.132812 -16.800781 20.054688 -16.957031 19.898438 -17.035156 C 19.242188 -17.265625 19.125 -17.304688 18.660156 -16.839844 L 18.390625 -16.570312 C 18.078125 -16.183594 17.808594 -15.796875 17.539062 -15.410156 C 16.996094 -14.558594 16.53125 -13.707031 16.105469 -12.777344 C 15.449219 -11.304688 14.828125 -9.792969 14.167969 -8.324219 C 13.589844 -6.96875 13.007812 -5.613281 12.351562 -4.335938 C 12.273438 -4.179688 12.234375 -3.949219 12.039062 -3.871094 C 11.886719 -4.066406 12 -4.21875 12 -4.414062 C 12.039062 -4.570312 12.039062 -4.722656 12.078125 -4.878906 C 12.425781 -7.007812 12.890625 -9.136719 13.550781 -11.1875 C 14.132812 -13.046875 14.75 -14.867188 15.371094 -16.6875 C 16.027344 -18.660156 16.6875 -20.597656 17.191406 -22.609375 C 17.34375 -23.230469 17.5 -23.886719 17.617188 -24.507812 C 17.730469 -25.203125 17.578125 -25.472656 16.917969 -25.707031 C 16.6875 -25.785156 16.492188 -25.785156 16.300781 -25.628906 C 16.066406 -25.472656 15.835938 -25.28125 15.640625 -25.046875 C 15.136719 -24.46875 14.632812 -23.847656 14.167969 -23.191406 C 13.046875 -21.640625 12.15625 -19.9375 11.304688 -18.195312 C 10.570312 -16.648438 9.910156 -15.097656 9.292969 -13.511719 C 8.089844 -10.648438 6.929688 -7.820312 5.847656 -4.917969 C 5.382812 -3.753906 4.917969 -2.59375 4.375 -1.472656 C 4.335938 -1.316406 4.296875 -1.121094 4.027344 -0.96875 L 4.140625 -2.089844 C 4.414062 -3.988281 4.800781 -5.882812 5.226562 -7.742188 C 5.808594 -10.066406 6.503906 -12.3125 7.164062 -14.59375 C 7.9375 -17.113281 8.710938 -19.628906 9.332031 -22.144531 C 9.523438 -22.957031 9.71875 -23.730469 9.792969 -24.546875 C 9.832031 -24.933594 9.871094 -25.320312 9.832031 -25.707031 C 9.832031 -25.863281 9.792969 -26.015625 9.640625 -26.09375 C 9.214844 -26.328125 8.789062 -26.519531 8.285156 -26.289062 C 8.015625 -26.09375 7.703125 -25.9375 7.472656 -25.746094 C 6.386719 -24.933594 5.457031 -24.003906 4.605469 -22.996094 C 2.515625 -20.480469 1.046875 -17.617188 0.308594 -14.441406 C 0.078125 -13.472656 -0.078125 -12.503906 0.0390625 -11.5 C 0.078125 -11.035156 0.195312 -10.570312 0.425781 -10.144531 C 0.695312 -9.679688 1.121094 -9.40625 1.664062 -9.367188 C 1.820312 -9.332031 1.9375 -9.332031 2.089844 -9.332031 C 2.207031 -9.367188 2.363281 -9.292969 2.476562 -9.40625 C 2.363281 -9.601562 2.246094 -9.445312 2.089844 -9.445312 C 2.050781 -9.484375 2.011719 -9.445312 1.9375 -9.445312 C 1.511719 -9.40625 1.199219 -9.601562 0.96875 -9.910156 C 0.734375 -10.222656 0.621094 -10.53125 0.542969 -10.878906 C 0.386719 -11.535156 0.386719 -12.195312 0.464844 -12.816406 C 0.621094 -13.859375 0.890625 -14.828125 1.238281 -15.796875 C 2.324219 -18.855469 4.027344 -21.527344 6.273438 -23.886719 C 6.929688 -24.585938 7.625 -25.203125 8.402344 -25.667969 C 8.59375 -25.785156 8.75 -25.9375 8.980469 -25.898438 C 9.097656 -25.707031 9.019531 -25.511719 9.019531 -25.320312 C 8.90625 -24.46875 8.75 -23.617188 8.515625 -22.804688 C 7.9375 -20.480469 7.238281 -18.195312 6.542969 -15.875 C 5.808594 -13.511719 5.070312 -11.148438 4.492188 -8.75 C 4.027344 -6.773438 3.601562 -4.839844 3.367188 -2.828125 C 3.289062 -2.128906 3.175781 -1.394531 3.214844 -0.65625 C 3.253906 -0.0390625 3.328125 0 3.910156 0.117188 Z M 3.910156 0.117188 "/></g></g></g><g fill="#6b6b6b" fill-opacity="1"><g transform="translate(166.943944, 296.531964)"><g><path d="M 5.421875 -9.484375 L 5.769531 -9.679688 C 6.15625 -9.949219 6.464844 -10.222656 6.8125 -10.53125 C 7.472656 -11.148438 8.089844 -11.847656 8.710938 -12.503906 C 8.90625 -12.660156 8.867188 -12.738281 8.671875 -12.816406 C 8.515625 -12.890625 8.402344 -12.851562 8.285156 -12.738281 C 8.167969 -12.621094 8.050781 -12.503906 7.898438 -12.390625 C 7.511719 -11.964844 7.125 -11.535156 6.699219 -11.109375 C 6.273438 -10.683594 5.808594 -10.296875 5.265625 -9.949219 C 5.070312 -9.832031 4.839844 -9.71875 4.605469 -9.679688 C 4.492188 -9.640625 4.414062 -9.679688 4.375 -9.792969 C 4.296875 -9.988281 4.296875 -10.183594 4.296875 -10.375 C 4.257812 -11.074219 4.414062 -11.730469 4.605469 -12.390625 C 4.878906 -13.394531 5.226562 -14.324219 5.613281 -15.292969 C 5.691406 -15.484375 5.769531 -15.679688 5.808594 -15.875 C 5.847656 -16.027344 5.808594 -16.105469 5.652344 -16.183594 C 5.421875 -16.335938 5.34375 -16.300781 5.148438 -16.105469 C 5.109375 -16.066406 5.03125 -15.988281 4.996094 -15.910156 L 3.871094 -14.519531 C 3.601562 -14.207031 3.601562 -14.132812 3.175781 -14.324219 L 2.980469 -14.402344 C 2.671875 -14.480469 2.363281 -14.480469 2.128906 -14.285156 C 1.972656 -14.207031 1.820312 -14.09375 1.703125 -13.976562 C 0.96875 -13.242188 0.464844 -12.425781 0.117188 -11.460938 L 0 -10.917969 C 0 -10.839844 0.0390625 -10.722656 0.117188 -10.648438 C 0.347656 -10.375 0.734375 -10.375 1.007812 -10.570312 C 1.121094 -10.648438 1.199219 -10.683594 1.277344 -10.761719 C 1.546875 -11.074219 1.859375 -11.382812 2.128906 -11.691406 L 4.257812 -14.285156 C 4.335938 -14.363281 4.375 -14.519531 4.53125 -14.519531 C 4.605469 -14.363281 4.492188 -14.207031 4.453125 -14.054688 C 4.105469 -13.164062 3.832031 -12.273438 3.679688 -11.34375 C 3.640625 -10.878906 3.601562 -10.453125 3.714844 -10.027344 C 3.792969 -9.832031 3.871094 -9.679688 3.988281 -9.601562 C 4.453125 -9.292969 4.917969 -9.136719 5.421875 -9.484375 Z M 0.734375 -10.996094 C 0.65625 -11.109375 0.65625 -11.1875 0.695312 -11.265625 C 1.046875 -12.15625 1.511719 -12.96875 2.128906 -13.707031 C 2.285156 -13.859375 2.476562 -14.054688 2.710938 -14.132812 C 2.828125 -14.207031 2.980469 -14.246094 3.136719 -14.207031 C 3.367188 -14.132812 3.445312 -14.015625 3.289062 -13.820312 C 2.632812 -13.046875 1.972656 -12.234375 1.277344 -11.460938 C 1.121094 -11.304688 0.96875 -11.109375 0.734375 -10.996094 Z M 0.734375 -10.996094 "/></g></g></g><g fill="#6b6b6b" fill-opacity="1"><g transform="translate(174.607926, 296.531964)"><g><path d="M 0.621094 -9.601562 C 0.695312 -9.5625 0.773438 -9.601562 0.851562 -9.679688 L 1.046875 -9.910156 C 1.238281 -10.222656 1.394531 -10.53125 1.585938 -10.878906 C 1.972656 -11.5 2.285156 -12.15625 2.710938 -12.777344 C 2.828125 -12.929688 2.941406 -13.085938 3.097656 -13.242188 C 3.136719 -13.277344 3.253906 -13.242188 3.253906 -13.164062 C 3.253906 -13.085938 3.289062 -13.007812 3.289062 -12.929688 C 3.328125 -12.542969 3.367188 -12.195312 3.523438 -11.847656 C 3.601562 -11.535156 3.753906 -11.304688 4.027344 -11.109375 C 4.453125 -10.878906 4.839844 -10.722656 5.34375 -10.761719 C 6.386719 -10.878906 7.277344 -11.265625 8.050781 -11.964844 C 8.324219 -12.15625 8.554688 -12.390625 8.789062 -12.621094 C 8.867188 -12.660156 8.980469 -12.699219 8.941406 -12.816406 C 8.75 -12.96875 8.554688 -13.007812 8.363281 -12.851562 C 8.167969 -12.738281 8.015625 -12.582031 7.820312 -12.425781 L 7.007812 -11.847656 C 6.308594 -11.382812 5.574219 -11.148438 4.722656 -11.074219 C 4.492188 -11.074219 4.335938 -11.148438 4.21875 -11.382812 C 4.066406 -11.652344 3.949219 -11.964844 3.910156 -12.273438 C 3.832031 -12.582031 3.792969 -12.890625 3.714844 -13.203125 C 3.679688 -13.472656 3.523438 -13.667969 3.253906 -13.742188 C 3.058594 -13.820312 2.941406 -13.78125 2.828125 -13.667969 C 2.59375 -13.394531 2.398438 -13.125 2.246094 -12.851562 L 1.199219 -10.996094 C 1.085938 -10.839844 1.007812 -10.683594 0.851562 -10.453125 C 0.773438 -10.648438 0.8125 -10.722656 0.8125 -10.839844 C 1.046875 -12.195312 1.394531 -13.511719 1.898438 -14.789062 C 2.089844 -15.253906 2.246094 -15.679688 2.476562 -16.105469 C 2.515625 -16.183594 2.476562 -16.261719 2.398438 -16.335938 C 2.324219 -16.375 2.246094 -16.335938 2.167969 -16.261719 L 1.972656 -15.910156 C 1.160156 -14.324219 0.65625 -12.699219 0.347656 -10.957031 C 0.308594 -10.648438 0.269531 -10.375 0.269531 -10.066406 C 0.230469 -9.792969 0.347656 -9.679688 0.621094 -9.601562 Z M 0.621094 -9.601562 "/></g></g></g><g fill="#6b6b6b" fill-opacity="1"><g transform="translate(182.388019, 296.531964)"><g><path d="M 5.421875 -9.484375 L 5.769531 -9.679688 C 6.15625 -9.949219 6.464844 -10.222656 6.8125 -10.53125 C 7.472656 -11.148438 8.089844 -11.847656 8.710938 -12.503906 C 8.90625 -12.660156 8.867188 -12.738281 8.671875 -12.816406 C 8.515625 -12.890625 8.402344 -12.851562 8.285156 -12.738281 C 8.167969 -12.621094 8.050781 -12.503906 7.898438 -12.390625 C 7.511719 -11.964844 7.125 -11.535156 6.699219 -11.109375 C 6.273438 -10.683594 5.808594 -10.296875 5.265625 -9.949219 C 5.070312 -9.832031 4.839844 -9.71875 4.605469 -9.679688 C 4.492188 -9.640625 4.414062 -9.679688 4.375 -9.792969 C 4.296875 -9.988281 4.296875 -10.183594 4.296875 -10.375 C 4.257812 -11.074219 4.414062 -11.730469 4.605469 -12.390625 C 4.878906 -13.394531 5.226562 -14.324219 5.613281 -15.292969 C 5.691406 -15.484375 5.769531 -15.679688 5.808594 -15.875 C 5.847656 -16.027344 5.808594 -16.105469 5.652344 -16.183594 C 5.421875 -16.335938 5.34375 -16.300781 5.148438 -16.105469 C 5.109375 -16.066406 5.03125 -15.988281 4.996094 -15.910156 L 3.871094 -14.519531 C 3.601562 -14.207031 3.601562 -14.132812 3.175781 -14.324219 L 2.980469 -14.402344 C 2.671875 -14.480469 2.363281 -14.480469 2.128906 -14.285156 C 1.972656 -14.207031 1.820312 -14.09375 1.703125 -13.976562 C 0.96875 -13.242188 0.464844 -12.425781 0.117188 -11.460938 L 0 -10.917969 C 0 -10.839844 0.0390625 -10.722656 0.117188 -10.648438 C 0.347656 -10.375 0.734375 -10.375 1.007812 -10.570312 C 1.121094 -10.648438 1.199219 -10.683594 1.277344 -10.761719 C 1.546875 -11.074219 1.859375 -11.382812 2.128906 -11.691406 L 4.257812 -14.285156 C 4.335938 -14.363281 4.375 -14.519531 4.53125 -14.519531 C 4.605469 -14.363281 4.492188 -14.207031 4.453125 -14.054688 C 4.105469 -13.164062 3.832031 -12.273438 3.679688 -11.34375 C 3.640625 -10.878906 3.601562 -10.453125 3.714844 -10.027344 C 3.792969 -9.832031 3.871094 -9.679688 3.988281 -9.601562 C 4.453125 -9.292969 4.917969 -9.136719 5.421875 -9.484375 Z M 0.734375 -10.996094 C 0.65625 -11.109375 0.65625 -11.1875 0.695312 -11.265625 C 1.046875 -12.15625 1.511719 -12.96875 2.128906 -13.707031 C 2.285156 -13.859375 2.476562 -14.054688 2.710938 -14.132812 C 2.828125 -14.207031 2.980469 -14.246094 3.136719 -14.207031 C 3.367188 -14.132812 3.445312 -14.015625 3.289062 -13.820312 C 2.632812 -13.046875 1.972656 -12.234375 1.277344 -11.460938 C 1.121094 -11.304688 0.96875 -11.109375 0.734375 -10.996094 Z M 0.734375 -10.996094 "/></g></g></g><g fill="#6b6b6b" fill-opacity="1"><g transform="translate(190.052001, 296.531964)"><g><path d="M 9.71875 -12.816406 C 9.601562 -12.851562 9.484375 -12.851562 9.367188 -12.777344 C 9.019531 -12.542969 8.710938 -12.273438 8.402344 -11.964844 L 5.34375 -9.058594 C 4.878906 -8.554688 4.375 -8.089844 3.910156 -7.589844 C 3.832031 -7.78125 3.949219 -7.9375 4.027344 -8.089844 C 4.492188 -9.136719 4.996094 -10.183594 5.496094 -11.226562 C 6.117188 -12.582031 6.738281 -13.9375 7.277344 -15.332031 C 7.355469 -15.523438 7.433594 -15.71875 7.472656 -15.910156 C 7.511719 -16.027344 7.433594 -16.144531 7.316406 -16.261719 C 7.007812 -16.453125 6.96875 -16.492188 6.699219 -16.222656 C 6.582031 -16.144531 6.503906 -16.105469 6.425781 -16.027344 C 5.691406 -15.332031 4.878906 -14.632812 4.066406 -14.015625 C 3.328125 -13.394531 2.59375 -12.816406 1.78125 -12.3125 C 1.625 -12.195312 1.433594 -12.078125 1.238281 -12 C 1.160156 -12 1.121094 -12.039062 1.121094 -12.117188 C 1.121094 -12.15625 1.121094 -12.234375 1.160156 -12.3125 C 1.472656 -13.085938 1.9375 -13.78125 2.632812 -14.324219 C 3.175781 -14.789062 3.5625 -14.867188 4.21875 -14.632812 C 3.910156 -14.984375 3.523438 -15.097656 3.097656 -15.019531 C 2.789062 -14.984375 2.515625 -14.867188 2.246094 -14.671875 C 1.546875 -14.132812 1.007812 -13.433594 0.65625 -12.621094 C 0.621094 -12.464844 0.582031 -12.3125 0.582031 -12.15625 C 0.542969 -12 0.621094 -11.886719 0.734375 -11.769531 C 1.046875 -11.535156 1.355469 -11.5 1.703125 -11.691406 C 2.050781 -11.886719 2.398438 -12.078125 2.710938 -12.3125 C 3.484375 -12.890625 4.257812 -13.511719 5.03125 -14.167969 C 5.421875 -14.519531 5.847656 -14.867188 6.273438 -15.214844 C 6.347656 -15.253906 6.425781 -15.371094 6.542969 -15.292969 C 6.542969 -15.058594 6.425781 -14.867188 6.308594 -14.671875 C 5.03125 -11.730469 3.601562 -8.867188 2.324219 -5.921875 C 2.246094 -5.769531 2.167969 -5.613281 2.011719 -5.457031 C 1.160156 -4.414062 0.347656 -3.367188 -0.464844 -2.324219 C -1.433594 -1.007812 -2.324219 0.308594 -3.097656 1.703125 C -3.367188 2.207031 -3.601562 2.710938 -3.753906 3.253906 C -3.832031 3.445312 -3.871094 3.679688 -3.871094 3.871094 C -3.910156 4.21875 -3.792969 4.375 -3.484375 4.492188 C -3.175781 4.644531 -2.902344 4.605469 -2.59375 4.414062 C -2.324219 4.179688 -2.089844 3.910156 -1.859375 3.640625 C -1.160156 2.789062 -0.621094 1.820312 -0.117188 0.851562 C 0.890625 -1.160156 1.859375 -3.175781 2.75 -5.226562 C 2.902344 -5.574219 3.097656 -5.882812 3.367188 -6.195312 C 5.070312 -8.089844 6.890625 -9.871094 8.789062 -11.5 L 9.792969 -12.351562 C 10.027344 -12.582031 10.027344 -12.699219 9.71875 -12.816406 Z M 1.199219 -3.601562 L 1.160156 -3.601562 C 1.199219 -3.601562 1.199219 -3.640625 1.199219 -3.640625 Z M 1.121094 -3.175781 L 0.425781 -1.703125 C -0.195312 -0.386719 -0.8125 0.929688 -1.546875 2.128906 C -1.859375 2.632812 -2.167969 3.136719 -2.554688 3.5625 C -2.75 3.792969 -2.941406 3.988281 -3.175781 4.140625 C -3.214844 4.179688 -3.289062 4.179688 -3.328125 4.140625 C -3.328125 4.140625 -3.367188 4.105469 -3.367188 4.066406 C -3.367188 3.832031 -3.328125 3.640625 -3.253906 3.445312 C -3.097656 2.863281 -2.828125 2.363281 -2.554688 1.859375 C -1.78125 0.464844 -0.890625 -0.8125 0.0390625 -2.050781 L 1.160156 -3.601562 C 1.277344 -3.445312 1.199219 -3.289062 1.121094 -3.175781 Z M 1.121094 -3.175781 "/></g></g></g><g fill="#6b6b6b" fill-opacity="1"><g transform="translate(198.838477, 296.531964)"><g><path d="M 1.355469 -9.175781 C 1.511719 -9.136719 1.664062 -9.136719 1.820312 -9.175781 C 2.4375 -9.253906 2.941406 -9.484375 3.445312 -9.792969 C 4.414062 -10.335938 6.386719 -11.847656 7.238281 -12.582031 C 7.316406 -12.660156 7.433594 -12.699219 7.550781 -12.816406 C 7.085938 -13.164062 7.085938 -13.164062 6.738281 -12.890625 L 6.425781 -12.660156 C 5.808594 -12.15625 4.066406 -10.839844 3.367188 -10.414062 C 2.980469 -10.183594 2.632812 -9.988281 2.246094 -9.832031 C 1.9375 -9.71875 1.625 -9.679688 1.316406 -9.640625 C 0.929688 -9.5625 0.773438 -9.679688 0.734375 -10.066406 C 0.695312 -10.609375 0.734375 -11.148438 0.890625 -11.652344 C 0.96875 -11.808594 1.046875 -11.964844 1.199219 -12.078125 C 1.511719 -12.3125 1.859375 -12.542969 2.167969 -12.816406 C 2.789062 -13.355469 3.367188 -13.976562 3.832031 -14.671875 C 4.027344 -14.984375 4.21875 -15.292969 4.296875 -15.640625 C 4.335938 -15.757812 4.335938 -15.835938 4.296875 -15.949219 C 4.179688 -16.300781 3.640625 -16.570312 3.289062 -16.414062 C 3.175781 -16.375 3.058594 -16.300781 2.941406 -16.183594 C 2.671875 -16.027344 2.4375 -15.757812 2.207031 -15.523438 C 1.625 -14.867188 1.160156 -14.09375 0.773438 -13.316406 C 0.503906 -12.777344 0.269531 -12.234375 0.117188 -11.652344 C 0 -11.226562 -0.0390625 -10.839844 0.0390625 -10.414062 C 0.0390625 -10.183594 0.117188 -9.949219 0.269531 -9.792969 C 0.621094 -9.484375 0.929688 -9.253906 1.355469 -9.175781 Z M 1.394531 -12.777344 C 1.355469 -12.816406 1.355469 -12.851562 1.394531 -12.929688 C 1.820312 -13.859375 2.363281 -14.75 3.058594 -15.523438 C 3.253906 -15.71875 3.445312 -15.910156 3.714844 -16.027344 C 3.792969 -16.066406 3.871094 -16.027344 3.871094 -15.910156 C 3.871094 -15.71875 3.792969 -15.523438 3.679688 -15.332031 C 3.445312 -14.867188 3.136719 -14.480469 2.828125 -14.09375 C 2.4375 -13.628906 2.011719 -13.242188 1.585938 -12.851562 C 1.546875 -12.816406 1.511719 -12.738281 1.394531 -12.777344 Z M 1.394531 -12.777344 "/></g></g></g><g fill="#6b6b6b" fill-opacity="1"><g transform="translate(205.225126, 296.531964)"><g><path d="M 0.773438 -9.445312 C 1.046875 -9.332031 1.121094 -9.367188 1.316406 -9.601562 C 1.511719 -9.871094 1.703125 -10.183594 1.859375 -10.492188 C 2.363281 -11.421875 2.828125 -12.3125 3.328125 -13.242188 L 4.296875 -14.984375 C 4.375 -15.058594 4.414062 -15.214844 4.605469 -15.214844 C 4.53125 -15.058594 4.492188 -14.867188 4.453125 -14.710938 C 4.335938 -14.324219 4.21875 -13.9375 4.140625 -13.550781 C 4.027344 -13.085938 3.871094 -12.621094 3.871094 -12.15625 C 3.832031 -11.730469 3.832031 -11.730469 4.21875 -11.535156 L 4.375 -11.5 C 4.492188 -11.421875 4.605469 -11.460938 4.683594 -11.574219 C 4.878906 -11.769531 5.03125 -12 5.226562 -12.195312 C 5.382812 -12.390625 5.496094 -12.542969 5.652344 -12.699219 C 5.691406 -12.738281 5.730469 -12.738281 5.769531 -12.738281 C 5.847656 -12.738281 5.847656 -12.660156 5.882812 -12.621094 L 5.882812 -12.351562 C 6.039062 -11.460938 6.15625 -11.304688 7.007812 -10.917969 C 7.625 -10.648438 8.207031 -10.648438 8.789062 -10.957031 C 9.292969 -11.1875 9.792969 -11.460938 10.222656 -11.847656 C 10.53125 -12.078125 10.839844 -12.351562 11.109375 -12.660156 C 11.1875 -12.738281 11.148438 -12.816406 11.074219 -12.890625 C 10.917969 -13.007812 10.761719 -12.96875 10.609375 -12.851562 L 9.679688 -12.15625 C 9.214844 -11.769531 8.671875 -11.460938 8.128906 -11.265625 C 7.898438 -11.148438 7.625 -11.074219 7.355469 -11.074219 C 7.007812 -11.074219 6.8125 -11.226562 6.699219 -11.574219 C 6.582031 -11.808594 6.542969 -12.078125 6.503906 -12.3125 C 6.464844 -12.503906 6.464844 -12.660156 6.386719 -12.851562 C 6.386719 -12.929688 6.308594 -13.007812 6.273438 -13.046875 C 5.847656 -13.394531 5.535156 -13.394531 5.148438 -13.007812 C 5.070312 -12.890625 4.957031 -12.777344 4.839844 -12.660156 C 4.800781 -12.621094 4.800781 -12.582031 4.683594 -12.621094 C 4.644531 -12.777344 4.722656 -12.96875 4.761719 -13.164062 C 4.957031 -13.898438 5.148438 -14.632812 5.382812 -15.410156 C 5.421875 -15.5625 5.457031 -15.757812 5.457031 -15.949219 C 5.457031 -16.066406 5.421875 -16.144531 5.34375 -16.183594 C 4.996094 -16.492188 4.722656 -16.492188 4.453125 -16.105469 C 4.335938 -15.949219 4.179688 -15.757812 4.066406 -15.5625 C 3.792969 -15.058594 3.523438 -14.59375 3.289062 -14.132812 C 2.75 -13.164062 2.246094 -12.15625 1.703125 -11.1875 C 1.546875 -10.878906 1.355469 -10.570312 1.160156 -10.222656 C 1.121094 -10.183594 1.085938 -10.105469 1.007812 -10.144531 C 0.96875 -10.183594 0.96875 -10.257812 0.96875 -10.296875 C 1.007812 -11.109375 1.121094 -11.886719 1.277344 -12.699219 C 1.433594 -13.472656 1.625 -14.207031 1.78125 -14.945312 C 1.820312 -15.097656 1.820312 -15.214844 1.859375 -15.332031 C 1.859375 -15.449219 1.78125 -15.523438 1.703125 -15.5625 C 1.585938 -15.601562 1.511719 -15.523438 1.472656 -15.449219 C 1.394531 -15.253906 1.316406 -15.097656 1.277344 -14.90625 C 0.890625 -13.742188 0.582031 -12.542969 0.425781 -11.304688 C 0.347656 -10.878906 0.347656 -10.414062 0.386719 -9.949219 C 0.386719 -9.679688 0.503906 -9.523438 0.773438 -9.445312 Z M 0.773438 -9.445312 "/></g></g></g><g fill="#6b6b6b" fill-opacity="1"><g transform="translate(215.211526, 296.531964)"><g><path d="M 1.355469 -9.175781 C 1.511719 -9.136719 1.664062 -9.136719 1.820312 -9.175781 C 2.4375 -9.253906 2.941406 -9.484375 3.445312 -9.792969 C 4.414062 -10.335938 6.386719 -11.847656 7.238281 -12.582031 C 7.316406 -12.660156 7.433594 -12.699219 7.550781 -12.816406 C 7.085938 -13.164062 7.085938 -13.164062 6.738281 -12.890625 L 6.425781 -12.660156 C 5.808594 -12.15625 4.066406 -10.839844 3.367188 -10.414062 C 2.980469 -10.183594 2.632812 -9.988281 2.246094 -9.832031 C 1.9375 -9.71875 1.625 -9.679688 1.316406 -9.640625 C 0.929688 -9.5625 0.773438 -9.679688 0.734375 -10.066406 C 0.695312 -10.609375 0.734375 -11.148438 0.890625 -11.652344 C 0.96875 -11.808594 1.046875 -11.964844 1.199219 -12.078125 C 1.511719 -12.3125 1.859375 -12.542969 2.167969 -12.816406 C 2.789062 -13.355469 3.367188 -13.976562 3.832031 -14.671875 C 4.027344 -14.984375 4.21875 -15.292969 4.296875 -15.640625 C 4.335938 -15.757812 4.335938 -15.835938 4.296875 -15.949219 C 4.179688 -16.300781 3.640625 -16.570312 3.289062 -16.414062 C 3.175781 -16.375 3.058594 -16.300781 2.941406 -16.183594 C 2.671875 -16.027344 2.4375 -15.757812 2.207031 -15.523438 C 1.625 -14.867188 1.160156 -14.09375 0.773438 -13.316406 C 0.503906 -12.777344 0.269531 -12.234375 0.117188 -11.652344 C 0 -11.226562 -0.0390625 -10.839844 0.0390625 -10.414062 C 0.0390625 -10.183594 0.117188 -9.949219 0.269531 -9.792969 C 0.621094 -9.484375 0.929688 -9.253906 1.355469 -9.175781 Z M 1.394531 -12.777344 C 1.355469 -12.816406 1.355469 -12.851562 1.394531 -12.929688 C 1.820312 -13.859375 2.363281 -14.75 3.058594 -15.523438 C 3.253906 -15.71875 3.445312 -15.910156 3.714844 -16.027344 C 3.792969 -16.066406 3.871094 -16.027344 3.871094 -15.910156 C 3.871094 -15.71875 3.792969 -15.523438 3.679688 -15.332031 C 3.445312 -14.867188 3.136719 -14.480469 2.828125 -14.09375 C 2.4375 -13.628906 2.011719 -13.242188 1.585938 -12.851562 C 1.546875 -12.816406 1.511719 -12.738281 1.394531 -12.777344 Z M 1.394531 -12.777344 "/></g></g></g><g fill="#6b6b6b" fill-opacity="1"><g transform="translate(221.598176, 296.531964)"><g><path d="M 0.621094 -9.601562 C 0.695312 -9.5625 0.773438 -9.601562 0.851562 -9.679688 L 1.046875 -9.910156 C 1.238281 -10.222656 1.394531 -10.53125 1.585938 -10.878906 C 1.972656 -11.5 2.285156 -12.15625 2.710938 -12.777344 C 2.828125 -12.929688 2.941406 -13.085938 3.097656 -13.242188 C 3.136719 -13.277344 3.253906 -13.242188 3.253906 -13.164062 C 3.253906 -13.085938 3.289062 -13.007812 3.289062 -12.929688 C 3.328125 -12.542969 3.367188 -12.195312 3.523438 -11.847656 C 3.601562 -11.535156 3.753906 -11.304688 4.027344 -11.109375 C 4.453125 -10.878906 4.839844 -10.722656 5.34375 -10.761719 C 6.386719 -10.878906 7.277344 -11.265625 8.050781 -11.964844 C 8.324219 -12.15625 8.554688 -12.390625 8.789062 -12.621094 C 8.867188 -12.660156 8.980469 -12.699219 8.941406 -12.816406 C 8.75 -12.96875 8.554688 -13.007812 8.363281 -12.851562 C 8.167969 -12.738281 8.015625 -12.582031 7.820312 -12.425781 L 7.007812 -11.847656 C 6.308594 -11.382812 5.574219 -11.148438 4.722656 -11.074219 C 4.492188 -11.074219 4.335938 -11.148438 4.21875 -11.382812 C 4.066406 -11.652344 3.949219 -11.964844 3.910156 -12.273438 C 3.832031 -12.582031 3.792969 -12.890625 3.714844 -13.203125 C 3.679688 -13.472656 3.523438 -13.667969 3.253906 -13.742188 C 3.058594 -13.820312 2.941406 -13.78125 2.828125 -13.667969 C 2.59375 -13.394531 2.398438 -13.125 2.246094 -12.851562 L 1.199219 -10.996094 C 1.085938 -10.839844 1.007812 -10.683594 0.851562 -10.453125 C 0.773438 -10.648438 0.8125 -10.722656 0.8125 -10.839844 C 1.046875 -12.195312 1.394531 -13.511719 1.898438 -14.789062 C 2.089844 -15.253906 2.246094 -15.679688 2.476562 -16.105469 C 2.515625 -16.183594 2.476562 -16.261719 2.398438 -16.335938 C 2.324219 -16.375 2.246094 -16.335938 2.167969 -16.261719 L 1.972656 -15.910156 C 1.160156 -14.324219 0.65625 -12.699219 0.347656 -10.957031 C 0.308594 -10.648438 0.269531 -10.375 0.269531 -10.066406 C 0.230469 -9.792969 0.347656 -9.679688 0.621094 -9.601562 Z M 0.621094 -9.601562 "/></g></g></g><g fill="#6b6b6b" fill-opacity="1"><g transform="translate(229.37827, 296.531964)"><g><path d="M -1.007812 2.476562 C -0.851562 2.515625 -0.695312 2.4375 -0.582031 2.324219 C -0.503906 2.246094 -0.425781 2.167969 -0.347656 2.050781 C -0.0390625 1.703125 0.195312 1.316406 0.425781 0.890625 C 0.96875 -0.0390625 1.394531 -1.007812 1.859375 -1.972656 C 3.445312 -5.535156 4.996094 -9.136719 6.621094 -12.660156 C 6.660156 -12.738281 6.699219 -12.777344 6.699219 -12.816406 C 6.738281 -12.890625 6.660156 -12.96875 6.621094 -12.96875 C 6.425781 -13.046875 6.308594 -13.046875 6.234375 -12.851562 C 6 -12.425781 5.808594 -12.039062 5.613281 -11.613281 C 4.492188 -9.332031 3.523438 -7.007812 2.515625 -4.683594 C 1.78125 -2.980469 1.007812 -1.277344 0.117188 0.386719 C -0.117188 0.851562 -0.386719 1.316406 -0.734375 1.703125 C -0.773438 1.78125 -0.851562 1.859375 -0.890625 1.898438 C -0.96875 1.9375 -1.007812 1.898438 -1.046875 1.859375 L -1.085938 1.585938 C -1.121094 0.929688 -1.121094 0.269531 -1.046875 -0.425781 C -0.890625 -1.898438 -0.621094 -3.328125 -0.269531 -4.761719 C 0.230469 -6.929688 0.8125 -9.058594 1.316406 -11.226562 C 1.859375 -13.589844 2.4375 -15.949219 3.136719 -18.273438 L 3.484375 -19.472656 C 3.5625 -19.667969 3.640625 -19.746094 3.832031 -19.785156 C 3.910156 -19.785156 3.988281 -19.785156 4.027344 -19.785156 L 7.316406 -20.246094 C 8.710938 -20.402344 10.105469 -20.597656 11.535156 -20.75 C 12.15625 -20.828125 12.816406 -20.90625 13.472656 -20.984375 L 17.382812 -21.5625 C 17.886719 -21.601562 18.429688 -21.527344 18.929688 -21.410156 C 19.125 -21.371094 19.203125 -21.292969 19.085938 -21.136719 C 18.96875 -20.945312 19.007812 -20.789062 19.046875 -20.636719 C 19.046875 -20.558594 19.085938 -20.480469 19.164062 -20.480469 C 19.242188 -20.480469 19.320312 -20.519531 19.359375 -20.558594 C 19.472656 -20.710938 19.511719 -20.90625 19.511719 -21.136719 L 19.394531 -21.640625 C 19.359375 -21.914062 19.203125 -22.027344 18.96875 -22.105469 C 18.46875 -22.222656 18.003906 -22.300781 17.5 -22.261719 C 16.917969 -22.222656 16.300781 -22.144531 15.71875 -22.066406 C 13.859375 -21.757812 11.964844 -21.5625 10.066406 -21.332031 C 9.058594 -21.214844 8.050781 -21.101562 7.046875 -20.984375 L 4.21875 -20.519531 C 4.105469 -20.519531 3.988281 -20.480469 3.871094 -20.558594 C 3.832031 -20.710938 3.910156 -20.867188 3.949219 -21.023438 C 4.105469 -21.679688 4.296875 -22.300781 4.453125 -22.957031 L 4.800781 -24.273438 C 4.839844 -24.429688 4.878906 -24.585938 4.839844 -24.738281 C 4.800781 -24.816406 4.761719 -24.855469 4.683594 -24.855469 C 4.605469 -24.855469 4.570312 -24.816406 4.53125 -24.777344 C 4.492188 -24.660156 4.414062 -24.546875 4.375 -24.390625 C 3.988281 -23.230469 3.640625 -22.066406 3.253906 -20.945312 L 3.136719 -20.519531 C 3.097656 -20.402344 3.019531 -20.324219 2.863281 -20.285156 L 1.972656 -20.171875 C 0.308594 -19.898438 -1.394531 -19.589844 -3.097656 -19.511719 C -3.601562 -19.472656 -4.140625 -19.511719 -4.644531 -19.589844 C -4.957031 -19.667969 -5.265625 -19.746094 -5.574219 -19.898438 C -5.652344 -19.9375 -5.730469 -20.015625 -5.847656 -20.054688 C -5.921875 -20.132812 -5.960938 -20.246094 -5.921875 -20.324219 C -5.882812 -20.441406 -5.847656 -20.480469 -5.769531 -20.558594 C -5.769531 -20.597656 -5.730469 -20.671875 -5.769531 -20.710938 C -5.847656 -20.75 -5.882812 -20.75 -5.960938 -20.75 C -6.15625 -20.636719 -6.234375 -20.441406 -6.15625 -20.246094 C -6.039062 -20.015625 -5.808594 -19.820312 -5.613281 -19.667969 C -5.1875 -19.394531 -4.761719 -19.242188 -4.296875 -19.164062 C -3.640625 -19.007812 -2.941406 -19.007812 -2.285156 -19.046875 C -0.8125 -19.125 0.65625 -19.320312 2.128906 -19.511719 C 2.941406 -19.628906 2.863281 -19.628906 2.632812 -18.894531 C 2.050781 -17.226562 1.511719 -15.5625 1.085938 -13.859375 L -0.542969 -7.238281 C -0.96875 -5.457031 -1.355469 -3.679688 -1.625 -1.859375 C -1.78125 -0.890625 -1.859375 0.078125 -1.820312 1.085938 C -1.78125 1.394531 -1.742188 1.703125 -1.664062 2.011719 C -1.585938 2.207031 -1.472656 2.398438 -1.199219 2.398438 C -1.160156 2.398438 -1.085938 2.4375 -1.007812 2.476562 Z M -1.007812 2.476562 "/></g></g></g></svg>