<svg xmlns="http://www.w3.org/2000/svg" viewBox="0 0 750 500"><g id="freepik--Floor--inject-6"><polygon points="50.72 441.6 131.79 441.36 212.86 441.27 375 441.11 537.14 441.27 618.21 441.36 699.28 441.6 618.21 441.85 537.14 441.94 375 442.1 212.86 441.94 131.79 441.85 50.72 441.6" style="fill:#263238"></polygon></g><g id="freepik--Device--inject-6"><rect x="68.63" y="419.29" width="612.74" height="22.32" style="fill:#c7c7c7"></rect><rect x="122.94" y="82.07" width="504.11" height="337.22" style="fill:#dbdbdb"></rect><rect x="126.61" y="86.18" width="496.79" height="328.99" style="fill:#263238"></rect><rect x="148.6" y="107.33" width="452.79" height="286.69" style="fill:#fff"></rect><rect x="148.6" y="107.33" width="452.79" height="7.45" style="fill:#455a64"></rect><path d="M155.64,111.05a1.42,1.42,0,1,1-1.41-1.41A1.41,1.41,0,0,1,155.64,111.05Z" style="fill:#c7c7c7"></path><path d="M161.42,111.05a1.42,1.42,0,1,1-1.42-1.41A1.42,1.42,0,0,1,161.42,111.05Z" style="fill:#fff"></path><path d="M167.19,111.05a1.42,1.42,0,1,1-1.42-1.41A1.41,1.41,0,0,1,167.19,111.05Z" style="fill:#353535"></path><rect x="148.6" y="114.78" width="452.79" height="41.85" style="fill:#353535"></rect><rect x="498.26" y="125.09" width="82.97" height="11.07" style="fill:#fff"></rect><path d="M581.34,136.28H498.15V125h83.19Zm-83-.23h82.75V125.2H498.37Z" style="fill:#c7c7c7"></path><rect x="570.04" y="124.97" width="11.31" height="11.31" style="fill:#455a64"></rect><path d="M579.2,133.73l-1,.78L576.29,132l-.7-.91a1.6,1.6,0,0,0,.4-.23,1.66,1.66,0,0,0,.53-.68l.73,1Z" style="fill:#fff"></path><path d="M577.19,127.84a2.79,2.79,0,1,0-.9,4.16,2.26,2.26,0,0,0,.38-.25,2.53,2.53,0,0,0,.58-.6A2.79,2.79,0,0,0,577.19,127.84Zm-1.2,3a1.6,1.6,0,0,1-.4.23,1.67,1.67,0,1,1,.93-.91A1.66,1.66,0,0,1,576,130.86Z" style="fill:#fff"></path><rect x="500.58" y="127.27" width="0.59" height="6.72" style="fill:#c7c7c7"></rect><rect x="203.59" y="125.09" width="271.49" height="11.07" style="fill:#fff"></rect><path d="M475.19,136.28H203.48V125H475.19Zm-271.49-.23H475V125.2H203.7Z" style="fill:#c7c7c7"></path><rect x="205.9" y="127.27" width="0.59" height="6.72" style="fill:#c7c7c7"></rect><polygon points="172.69 134.42 168.65 130.7 172.68 126.84 173.31 127.49 169.97 130.69 173.3 133.75 172.69 134.42" style="fill:#fff"></polygon><polygon points="182.42 126.84 186.45 130.55 182.43 134.41 181.8 133.76 185.14 130.56 181.81 127.5 182.42 126.84" style="fill:#fff"></polygon><rect x="148.6" y="107.33" width="452.79" height="286.69" style="fill:#fff;opacity:0.7000000000000001"></rect><rect x="204.94" y="140.72" width="340.11" height="230.94" style="fill:#fff"></rect><path d="M545.56,372.16H204.44V140.22H545.56Zm-340.12-1H544.56V141.22H205.44Z" style="fill:#ebebeb"></path><rect x="204.94" y="140.72" width="340.11" height="7.45" style="fill:#455a64"></rect><path d="M212,144.44a1.42,1.42,0,1,1-1.41-1.41A1.42,1.42,0,0,1,212,144.44Z" style="fill:#c7c7c7"></path><path d="M217.75,144.44a1.41,1.41,0,1,1-1.41-1.41A1.42,1.42,0,0,1,217.75,144.44Z" style="fill:#fff"></path><circle cx="222.11" cy="144.44" r="1.41" style="fill:#353535"></circle><path d="M297,229.61h-3.14l-.63,1.68a.74.74,0,0,1-.67.45.69.69,0,0,1-.25,0,.73.73,0,0,1-.42-.93l2.85-7.6a.75.75,0,0,1,1.37,0l2.85,7.6a.73.73,0,0,1-.42.93.66.66,0,0,1-.25,0,.71.71,0,0,1-.66-.45Zm-.53-1.42-1.05-2.78-1,2.78Z" style="fill:#263238"></path><path d="M303,231.74a2.7,2.7,0,0,1-2.69-2.68V226a.7.7,0,0,1,.69-.68.69.69,0,0,1,.68.68v3.09a1.3,1.3,0,0,0,1.32,1.31,1.33,1.33,0,0,0,1.35-1.31V226a.68.68,0,0,1,.67-.68.71.71,0,0,1,.7.68v3.09A2.72,2.72,0,0,1,303,231.74Z" style="fill:#263238"></path><path d="M311.28,226a.73.73,0,0,1-.72.71h-.32v3.6a.71.71,0,0,1,.71.72.7.7,0,0,1-.71.71,1.44,1.44,0,0,1-1.44-1.43v-3.6h-.37a.71.71,0,0,1-.71-.71.7.7,0,0,1,.71-.71h.37v-1.88a.72.72,0,0,1,.73-.71.7.7,0,0,1,.71.71v1.88h.32A.71.71,0,0,1,311.28,226Z" style="fill:#263238"></path><path d="M314.72,231a.72.72,0,0,1-.73.71.73.73,0,0,1-.68-.53,1,1,0,0,1,0-.18v-7.62a.72.72,0,0,1,1.44,0v2.25a2.9,2.9,0,0,1,1.38-.37,2.81,2.81,0,0,1,2.81,2.82V231a.71.71,0,0,1-1.42,0v-2.92a1.39,1.39,0,1,0-2.77,0Z" style="fill:#263238"></path><path d="M320.75,228.51a3.19,3.19,0,0,1,3.15-3.22,3.09,3.09,0,0,1,3.11,3v.07a.41.41,0,0,1,0,.11.63.63,0,0,1-.68.52h-4.1a1.7,1.7,0,0,0,.44.85,2,2,0,0,0,1.24.58,2.13,2.13,0,0,0,1.34-.32.72.72,0,0,1,1,0,.6.6,0,0,1,0,.84,3.27,3.27,0,0,1-2.31.85A3.2,3.2,0,0,1,320.75,228.51Zm1.4-.63h3.66a2.11,2.11,0,0,0-1.91-1.37A1.82,1.82,0,0,0,322.15,227.88Z" style="fill:#263238"></path><path d="M334.45,228v3.09a.68.68,0,0,1-.68.68.69.69,0,0,1-.68-.68V228a1.33,1.33,0,0,0-1.34-1.3,1.28,1.28,0,0,0-1.29,1.3v3.09a.26.26,0,0,1,0,.13.7.7,0,0,1-.68.55.68.68,0,0,1-.69-.68V226a.68.68,0,0,1,.69-.68.69.69,0,0,1,.63.4,2.53,2.53,0,0,1,1.37-.4A2.7,2.7,0,0,1,334.45,228Z" style="fill:#263238"></path><path d="M339.88,226a.73.73,0,0,1-.72.71h-.32v3.6a.71.71,0,0,1,.71.72.7.7,0,0,1-.71.71,1.44,1.44,0,0,1-1.44-1.43v-3.6H337a.71.71,0,0,1-.71-.71.7.7,0,0,1,.71-.71h.37v-1.88a.72.72,0,0,1,.73-.71.7.7,0,0,1,.71.71v1.88h.32A.71.71,0,0,1,339.88,226Z" style="fill:#263238"></path><path d="M343.55,223.67a.7.7,0,1,1-1.39,0v-.27a.7.7,0,1,1,1.39,0Zm0,2.34v5a.7.7,0,1,1-1.39,0v-5a.7.7,0,1,1,1.39,0Z" style="fill:#263238"></path><path d="M345.32,228.53a3.28,3.28,0,0,1,3.28-3.24,3.37,3.37,0,0,1,2,.71.68.68,0,1,1-.83,1.08,2.05,2.05,0,0,0-1.22-.41,1.85,1.85,0,1,0,0,3.7,2.1,2.1,0,0,0,1.22-.41.7.7,0,0,1,1,.14.71.71,0,0,1-.14,1,3.55,3.55,0,0,1-2,.68A3.27,3.27,0,0,1,345.32,228.53Z" style="fill:#263238"></path><path d="M358.6,228.53v2.53a.69.69,0,0,1-.68.68.7.7,0,0,1-.67-.55,3,3,0,0,1-3.91-.39,3.38,3.38,0,0,1,0-4.55,3,3,0,0,1,2.19-1,3,3,0,0,1,1.72.56.7.7,0,0,1,.67-.56.69.69,0,0,1,.68.69Zm-1.36,0a1.88,1.88,0,0,0-.51-1.33,1.59,1.59,0,0,0-1.2-.53,1.56,1.56,0,0,0-1.2.53,1.87,1.87,0,0,0-.49,1.33,1.94,1.94,0,0,0,.49,1.33,1.64,1.64,0,0,0,1.2.5,1.68,1.68,0,0,0,1.2-.5A2,2,0,0,0,357.24,228.53Z" style="fill:#263238"></path><path d="M364,226a.73.73,0,0,1-.72.71H363v3.6a.71.71,0,0,1,.71.72.7.7,0,0,1-.71.71,1.44,1.44,0,0,1-1.44-1.43v-3.6h-.37a.71.71,0,0,1-.71-.71.7.7,0,0,1,.71-.71h.37v-1.88a.72.72,0,0,1,.73-.71.7.7,0,0,1,.71.71v1.88h.32A.71.71,0,0,1,364,226Z" style="fill:#263238"></path><path d="M365.33,228.51a3.2,3.2,0,0,1,3.15-3.22,3.08,3.08,0,0,1,3.11,3v.07a.41.41,0,0,1,0,.11.63.63,0,0,1-.67.52h-4.1a1.68,1.68,0,0,0,.43.85,2,2,0,0,0,1.24.58,2.16,2.16,0,0,0,1.35-.32.71.71,0,0,1,1,0,.59.59,0,0,1,0,.84,3.25,3.25,0,0,1-2.31.85A3.21,3.21,0,0,1,365.33,228.51Zm1.41-.63h3.65a2.1,2.1,0,0,0-1.91-1.37A1.8,1.8,0,0,0,366.74,227.88Z" style="fill:#263238"></path><path d="M384,223.92l-2.65,3.62V231a.69.69,0,0,1-.71.71.72.72,0,0,1-.71-.71v-3.49l-2.62-3.62a.7.7,0,0,1,1.13-.83l2.2,3,2.21-3a.71.71,0,0,1,1.15.83Z" style="fill:#263238"></path><path d="M384.5,230.8a3.21,3.21,0,0,1-.9-2.27,3.32,3.32,0,0,1,.9-2.26,3,3,0,0,1,2.22-1,2.83,2.83,0,0,1,2.15,1,3.23,3.23,0,0,1,.91,2.26,3.14,3.14,0,0,1-.91,2.27,2.87,2.87,0,0,1-2.15,1A3,3,0,0,1,384.5,230.8Zm.51-2.27a2.06,2.06,0,0,0,.47,1.36,1.75,1.75,0,0,0,1.24.48,1.67,1.67,0,0,0,1.18-.48,2.06,2.06,0,0,0,0-2.71,1.82,1.82,0,0,0-1.18-.49,1.89,1.89,0,0,0-1.24.49A2.05,2.05,0,0,0,385,228.53Z" style="fill:#263238"></path><path d="M394.32,231.74a2.69,2.69,0,0,1-2.68-2.68V226a.69.69,0,0,1,.68-.68.68.68,0,0,1,.68.68v3.09a1.31,1.31,0,0,0,1.32,1.31,1.34,1.34,0,0,0,1.36-1.31V226a.67.67,0,0,1,.67-.68.72.72,0,0,1,.7.68v3.09A2.72,2.72,0,0,1,394.32,231.74Z" style="fill:#263238"></path><path d="M403.66,226a.69.69,0,0,1-.69.68,1.23,1.23,0,0,0-.77.25,1.87,1.87,0,0,0-.6.62,3.69,3.69,0,0,0-.52,1.08v2.46a.71.71,0,0,1-.71.68.69.69,0,0,1-.69-.68V226a.68.68,0,0,1,.69-.67.7.7,0,0,1,.71.67v.09a1.66,1.66,0,0,1,.27-.26,2.86,2.86,0,0,1,1.62-.5A.67.67,0,0,1,403.66,226Z" style="fill:#263238"></path><path d="M414,229.61h-3.13l-.64,1.68a.71.71,0,0,1-.67.45.64.64,0,0,1-.24,0,.73.73,0,0,1-.43-.93l2.85-7.6a.71.71,0,0,1,.69-.45.68.68,0,0,1,.68.45l2.86,7.6a.74.74,0,0,1-.43.93.62.62,0,0,1-.25,0,.69.69,0,0,1-.65-.45Zm-.53-1.42-1-2.78-1,2.78Z" style="fill:#263238"></path><path d="M416.79,228.53a3.28,3.28,0,0,1,3.28-3.24,3.37,3.37,0,0,1,2.05.71.7.7,0,0,1,.14.95.68.68,0,0,1-1,.13,2.11,2.11,0,0,0-1.23-.41,1.85,1.85,0,1,0,0,3.7,2.16,2.16,0,0,0,1.23-.41.69.69,0,0,1,1,.14.71.71,0,0,1-.14,1,3.55,3.55,0,0,1-2.05.68A3.27,3.27,0,0,1,416.79,228.53Z" style="fill:#263238"></path><path d="M424,228.53a3.28,3.28,0,0,1,3.28-3.24,3.37,3.37,0,0,1,2.05.71.68.68,0,1,1-.83,1.08,2.05,2.05,0,0,0-1.22-.41,1.85,1.85,0,1,0,0,3.7,2.1,2.1,0,0,0,1.22-.41.7.7,0,0,1,1,.14.71.71,0,0,1-.14,1,3.55,3.55,0,0,1-2.05.68A3.27,3.27,0,0,1,424,228.53Z" style="fill:#263238"></path><path d="M432.19,230.8a3.25,3.25,0,0,1-.89-2.27,3.35,3.35,0,0,1,.89-2.26,3,3,0,0,1,2.23-1,2.83,2.83,0,0,1,2.15,1,3.23,3.23,0,0,1,.9,2.26,3.13,3.13,0,0,1-.9,2.27,2.87,2.87,0,0,1-2.15,1A3.06,3.06,0,0,1,432.19,230.8Zm.52-2.27a2.06,2.06,0,0,0,.47,1.36,1.73,1.73,0,0,0,1.24.48,1.67,1.67,0,0,0,1.18-.48,2.06,2.06,0,0,0,0-2.71,1.82,1.82,0,0,0-1.18-.49,1.87,1.87,0,0,0-1.24.49A2.05,2.05,0,0,0,432.71,228.53Z" style="fill:#263238"></path><path d="M442,231.74a2.69,2.69,0,0,1-2.68-2.68V226a.69.69,0,0,1,.68-.68.68.68,0,0,1,.68.68v3.09a1.31,1.31,0,0,0,1.32,1.31,1.34,1.34,0,0,0,1.36-1.31V226a.67.67,0,0,1,.67-.68.72.72,0,0,1,.7.68v3.09A2.72,2.72,0,0,1,442,231.74Z" style="fill:#263238"></path><path d="M452.45,228v3.09a.67.67,0,0,1-.67.68.69.69,0,0,1-.68-.68V228a1.33,1.33,0,0,0-1.34-1.3,1.29,1.29,0,0,0-1.3,1.3v3.09a.37.37,0,0,1,0,.13.71.71,0,0,1-.69.55.68.68,0,0,1-.68-.68V226a.68.68,0,0,1,.68-.68.7.7,0,0,1,.64.4,2.51,2.51,0,0,1,1.37-.4A2.7,2.7,0,0,1,452.45,228Z" style="fill:#263238"></path><path d="M457.89,226a.73.73,0,0,1-.72.71h-.33v3.6a.7.7,0,0,1,.71.72.69.69,0,0,1-.71.71,1.44,1.44,0,0,1-1.43-1.43v-3.6H455a.71.71,0,0,1-.71-.71.7.7,0,0,1,.71-.71h.37v-1.88a.71.71,0,0,1,.72-.71.69.69,0,0,1,.71.71v1.88h.33A.72.72,0,0,1,457.89,226Z" style="fill:#263238"></path><rect x="251.85" y="258.74" width="33.34" height="43.72" style="fill:#ebebeb"></rect><rect x="292.01" y="258.74" width="33.34" height="43.72" style="fill:#ebebeb"></rect><rect x="332.17" y="258.74" width="33.34" height="43.72" style="fill:#ebebeb"></rect><rect x="384.49" y="258.74" width="33.34" height="43.72" style="fill:#ebebeb"></rect><rect x="424.65" y="258.74" width="33.34" height="43.72" style="fill:#ebebeb"></rect><rect x="464.8" y="258.74" width="33.34" height="43.72" style="fill:#ebebeb"></rect><path d="M272.82,278.35a8,8,0,0,1,2.38,5.74,8.12,8.12,0,0,1-2.38,5.71,8,8,0,0,1-5.72,2.39H267a7.91,7.91,0,0,1-5.68-2.39,1.79,1.79,0,0,1,0-2.61,1.85,1.85,0,0,1,2.61,0,4.36,4.36,0,0,0,6.23,0,4.43,4.43,0,0,0,1.31-3.1,4.42,4.42,0,0,0-4.41-4.41A4.34,4.34,0,0,0,264,281a1.85,1.85,0,0,1-2.61,0c-.13-.13-.23-.3-.36-.43s0-.09,0-.09a.22.22,0,0,0-.07-.17c0-.1,0-.16,0-.23s0,0,0-.06a1.32,1.32,0,0,1,0-.56l1-8.45a2,2,0,0,1,.81-1.3c.07,0,.1,0,.13-.07s.07,0,.1-.07a1.8,1.8,0,0,1,.85-.19h9.63a1.84,1.84,0,0,1,1.86,1.86,1.86,1.86,0,0,1-1.86,1.83h-8l-.39,3.23a8.24,8.24,0,0,1,2.18-.3A8,8,0,0,1,272.82,278.35Z" style="fill:#c7c7c7"></path><path d="M313.22,278.31A8,8,0,0,1,315.6,284a8.1,8.1,0,0,1-13.84,5.74,1.85,1.85,0,0,1,2.61-2.61,4.34,4.34,0,0,0,3.1,1.27,4.5,4.5,0,0,0,3.14-1.27,4.37,4.37,0,0,0,1.3-3.13,4.26,4.26,0,0,0-1.3-3.11,4.38,4.38,0,0,0-3.11-1.3,1.6,1.6,0,0,1-1.33-.59s0,0,0,0a1.85,1.85,0,0,1-.06-2.61l3.33-3.4h-5.29a1.84,1.84,0,0,1,0-3.68h9.63a1.83,1.83,0,0,1,1.86,1.82,2,2,0,0,1-.23.89,2.48,2.48,0,0,1-.33.45l-4.11,4.24A7.75,7.75,0,0,1,313.22,278.31Z" style="fill:#c7c7c7"></path><path d="M405.7,278.31a8,8,0,0,1,2.38,5.72,8.1,8.1,0,0,1-13.84,5.74,1.85,1.85,0,0,1,2.61-2.61,4.34,4.34,0,0,0,3.1,1.27,4.47,4.47,0,0,0,3.14-1.27,4.37,4.37,0,0,0,1.3-3.13,4.26,4.26,0,0,0-1.3-3.11,4.37,4.37,0,0,0-3.1-1.3,1.62,1.62,0,0,1-1.34-.59s0,0,0,0a1.86,1.86,0,0,1-.07-2.61l3.33-3.4h-5.29a1.84,1.84,0,0,1,0-3.68h9.63a1.82,1.82,0,0,1,1.86,1.82,2,2,0,0,1-.23.89,2.44,2.44,0,0,1-.32.45l-4.12,4.24A7.62,7.62,0,0,1,405.7,278.31Z" style="fill:#c7c7c7"></path><path d="M356,284.42a7.8,7.8,0,1,1-12.11-6.5,5.29,5.29,0,0,1-1.07-3.23,5.39,5.39,0,0,1,10.77,0,5.3,5.3,0,0,1-1.08,3.23A7.85,7.85,0,0,1,356,284.42Zm-3.56,0a4.25,4.25,0,0,0-4.21-4.25,4.23,4.23,0,1,0,0,8.46A4.22,4.22,0,0,0,352.39,284.42Zm-6.07-9.73a1.83,1.83,0,1,0,3.66,0,1.83,1.83,0,0,0-3.66,0Z" style="fill:#c7c7c7"></path><path d="M346.39,240a.18.18,0,0,1,.17-.18h2.65a.18.18,0,0,1,0,.36h-2.46v2h2.15a.19.19,0,0,1,.18.19.18.18,0,0,1-.18.17h-2.15v2h2.46a.18.18,0,0,1,0,.36h-2.66a.18.18,0,0,1-.16-.18Z" style="fill:#c7c7c7"></path><path d="M353.23,242.85a1.11,1.11,0,0,0-1.11-1.11,1.14,1.14,0,0,0-1.12,1.11v2a.11.11,0,0,1,0,.08.15.15,0,0,1-.13.07h0a.23.23,0,0,1-.12-.1v0a0,0,0,0,0,0,0v-3.28a.17.17,0,0,1,.18-.18.17.17,0,0,1,.16.18v.34a1.49,1.49,0,0,1,1.12-.52,1.46,1.46,0,0,1,1.46,1.46v2a.17.17,0,0,1-.18.18.17.17,0,0,1-.17-.18Z" style="fill:#c7c7c7"></path><path d="M356.41,241.56a.18.18,0,0,1-.18.17h-.46v2.62a.29.29,0,0,0,.27.27.18.18,0,1,1,0,.36.62.62,0,0,1-.63-.63v-2.62H355c-.18,0-.18-.08-.18-.17s0-.18.18-.18h.45v-1.33a.18.18,0,0,1,.17-.18.2.2,0,0,1,.19.18v1.33h.46A.19.19,0,0,1,356.41,241.56Z" style="fill:#c7c7c7"></path><path d="M357.54,243.19a1.74,1.74,0,1,1,3.48-.13h0v0a.17.17,0,0,1-.18.16h-2.95a1.42,1.42,0,0,0,1.4,1.38,1.36,1.36,0,0,0,1.16-.66.18.18,0,0,1,.23-.06.19.19,0,0,1,.06.25,1.7,1.7,0,0,1-1.45.82A1.77,1.77,0,0,1,357.54,243.19Zm.37-.29h2.73a1.4,1.4,0,0,0-1.35-1.17A1.42,1.42,0,0,0,357.91,242.9Z" style="fill:#c7c7c7"></path><path d="M362.11,241.57a.17.17,0,0,1,.18-.18.17.17,0,0,1,.17.18v.79l.05-.09a1.76,1.76,0,0,1,1.44-.88.17.17,0,0,1,.18.18.18.18,0,0,1-.18.17,1.3,1.3,0,0,0-1,.59,3.14,3.14,0,0,0-.43.84.08.08,0,0,0,0,.06v1.57a.17.17,0,0,1-.17.18.17.17,0,0,1-.18-.18Z" style="fill:#c7c7c7"></path><path d="M368.68,245a.16.16,0,0,1-.05-.08l-1.35-3.22a.16.16,0,0,1,.08-.22.17.17,0,0,1,.23.09l1.2,2.83,1.19-2.83a.17.17,0,0,1,.23-.09.16.16,0,0,1,.09.22L369,244.84a.41.41,0,0,1,0,.09.18.18,0,0,1-.12,0h-.11Z" style="fill:#c7c7c7"></path><path d="M374.63,241.56v3.24a.18.18,0,0,1-.17.18.18.18,0,0,1-.18-.18v-.53a1.69,1.69,0,0,1-1.35.71,1.8,1.8,0,0,1,0-3.6,1.67,1.67,0,0,1,1.35.71v-.53a.18.18,0,0,1,.18-.18A.18.18,0,0,1,374.63,241.56Zm-.35,1.62a1.35,1.35,0,1,0-1.35,1.45A1.4,1.4,0,0,0,374.28,243.18Z" style="fill:#c7c7c7"></path><path d="M376.31,240a.18.18,0,0,1,.36,0v4.78a.18.18,0,1,1-.36,0Z" style="fill:#c7c7c7"></path><path d="M378.1,240.38a.18.18,0,0,1,.17-.17.18.18,0,0,1,.19.17v.17a.18.18,0,0,1-.19.19.18.18,0,0,1-.17-.19Zm0,1.18a.18.18,0,0,1,.17-.18.18.18,0,0,1,.19.18v3.24a.18.18,0,0,1-.19.18.18.18,0,0,1-.17-.18Z" style="fill:#c7c7c7"></path><path d="M383,244.28a1.71,1.71,0,0,1-1.38.7,1.8,1.8,0,0,1,0-3.6,1.72,1.72,0,0,1,1.38.71V240a.18.18,0,0,1,.36,0v4.78a.18.18,0,1,1-.36,0Zm0-1v-.12a1.43,1.43,0,1,0,0,.12Z" style="fill:#c7c7c7"></path><path d="M386.94,243.17a1.81,1.81,0,0,1,1.85-1.79,1.84,1.84,0,0,1,1.14.4.16.16,0,0,1,0,.24.17.17,0,0,1-.24,0,1.51,1.51,0,0,0-.92-.32,1.45,1.45,0,1,0,0,2.9,1.51,1.51,0,0,0,.92-.32.17.17,0,0,1,.24,0,.18.18,0,0,1,0,.26,1.9,1.9,0,0,1-1.13.38A1.81,1.81,0,0,1,386.94,243.17Z" style="fill:#c7c7c7"></path><path d="M392.81,241.38a1.8,1.8,0,1,1-1.71,1.8A1.76,1.76,0,0,1,392.81,241.38Zm0,3.25a1.45,1.45,0,1,0-1.35-1.45A1.41,1.41,0,0,0,392.81,244.63Z" style="fill:#c7c7c7"></path><path d="M398.73,244.28a1.69,1.69,0,0,1-1.38.7,1.8,1.8,0,0,1,0-3.6,1.7,1.7,0,0,1,1.38.71V240a.19.19,0,0,1,.19-.18.18.18,0,0,1,.17.18v4.78a.18.18,0,0,1-.17.18.19.19,0,0,1-.19-.18Zm0-1v-.12a1.4,1.4,0,0,0-1.38-1.39,1.44,1.44,0,0,0,0,2.88A1.39,1.39,0,0,0,398.73,243.25Z" style="fill:#c7c7c7"></path><path d="M400.33,243.19a1.74,1.74,0,1,1,3.48-.13h0v0a.17.17,0,0,1-.17.16h-2.95a1.41,1.41,0,0,0,1.39,1.38,1.34,1.34,0,0,0,1.16-.66.18.18,0,0,1,.23-.06.19.19,0,0,1,.06.25,1.7,1.7,0,0,1-1.45.82A1.77,1.77,0,0,1,400.33,243.19Zm.38-.29h2.72a1.38,1.38,0,0,0-2.72,0Z" style="fill:#c7c7c7"></path><rect x="351.29" y="316.76" width="47.41" height="14.85" style="fill:#353535"></rect><path d="M361.4,325.34a.37.37,0,0,1,.53,0,2.45,2.45,0,0,0,1.41.56,1.58,1.58,0,0,0,.91-.27.67.67,0,0,0,.32-.53.37.37,0,0,0-.07-.23.58.58,0,0,0-.22-.22,2.87,2.87,0,0,0-1-.35h0a3.34,3.34,0,0,1-.94-.29,1.54,1.54,0,0,1-.69-.57,1.11,1.11,0,0,1-.17-.6,1.35,1.35,0,0,1,.59-1.07,2.17,2.17,0,0,1,1.27-.39,2.79,2.79,0,0,1,1.6.59.38.38,0,0,1-.42.63,2.1,2.1,0,0,0-1.18-.47,1.38,1.38,0,0,0-.82.25.57.57,0,0,0-.28.46.43.43,0,0,0,0,.21,1.25,1.25,0,0,0,.2.19,2.49,2.49,0,0,0,.92.32h0a4,4,0,0,1,1,.31,1.65,1.65,0,0,1,.74.61,1.16,1.16,0,0,1,.18.62,1.43,1.43,0,0,1-.64,1.14,2.3,2.3,0,0,1-1.35.42,3.17,3.17,0,0,1-1.88-.74A.38.38,0,0,1,361.4,325.34Z" style="fill:#fff"></path><path d="M368.58,326.61a2.11,2.11,0,0,1-2.12-2.12v-2.61a.39.39,0,0,1,.4-.4.41.41,0,0,1,.42.4v2.61a1.31,1.31,0,1,0,2.61,0v-2.61a.4.4,0,0,1,.41-.4.39.39,0,0,1,.4.4v2.61A2.11,2.11,0,0,1,368.58,326.61Z" style="fill:#fff"></path><path d="M372.42,326.21v-4.33a.4.4,0,0,1,.41-.4h1a1.4,1.4,0,0,1,1.4,1.39,1.44,1.44,0,0,1-.28.84,1.57,1.57,0,0,1-.83,2.9h-1.33A.41.41,0,0,1,372.42,326.21Zm.82-2.74h.63a.6.6,0,0,0,.58-.6.58.58,0,0,0-.58-.58h-.63Zm0,2.33h.92a.76.76,0,0,0,0-1.52h-.92Z" style="fill:#fff"></path><path d="M381.2,321.88v4.33a.41.41,0,0,1-.41.4.39.39,0,0,1-.4-.4v-3.09l-1.06,1.47a.4.4,0,0,1-.33.17h0a.41.41,0,0,1-.34-.17l-1-1.47v3.09a.41.41,0,0,1-.82,0v-4.33a.41.41,0,0,1,.41-.4h0a.39.39,0,0,1,.32.17l1.46,2,1.46-2a.4.4,0,0,1,.33-.17h0A.41.41,0,0,1,381.2,321.88Z" style="fill:#fff"></path><path d="M383,321.88a.39.39,0,0,1,.4-.4.4.4,0,0,1,.41.4v4.33a.4.4,0,0,1-.41.4.39.39,0,0,1-.4-.4Z" style="fill:#fff"></path><path d="M388.35,322.29h-1.16v3.92a.41.41,0,0,1-.81,0v-3.92h-1.16a.4.4,0,0,1-.4-.41.39.39,0,0,1,.4-.4h3.13a.4.4,0,0,1,.41.4A.42.42,0,0,1,388.35,322.29Z" style="fill:#fff"></path><circle cx="375" cy="194.36" r="20.45" transform="translate(-44.12 141.99) rotate(-20.27)" style="fill:#353535;opacity:0.30000000000000004"></circle><path d="M381.18,186.9v6.66H379.3V186.9a4.31,4.31,0,1,0-8.6,0v6.66h-1.88V186.9a6.19,6.19,0,1,1,12.36,0Z" style="fill:#fff"></path><polygon points="368.82 188.63 370.7 188.71 370.7 193.56 368.82 193.56 368.82 188.63" style="fill:#ebebeb"></polygon><polygon points="381.18 189.13 381.18 193.56 379.3 193.56 379.3 189.06 381.18 189.13" style="fill:#ebebeb"></polygon><rect x="366.4" y="191.1" width="17.19" height="14.27" style="fill:#353535"></rect><path d="M375.73,198.14l.72,3.41h-3.06l.72-3.41a1.53,1.53,0,1,1,1.62,0Z" style="fill:#263238"></path></g></svg>
